<svg width="80" height="80" viewBox="0 0 80 80" fill="none" xmlns="http://www.w3.org/2000/svg">
    <path
        d="M0 16C0 7.16344 7.16344 0 16 0H45C53.8366 0 61 7.16344 61 16V45C61 53.8366 53.8366 61 45 61H16C7.16344 61 0 53.8366 0 45V16Z"
        fill="url(#paint0_linear_10310_449)" />
    <path fill-rule="evenodd" clip-rule="evenodd"
        d="M10.4999 20.2418C10.4999 17.6206 12.6244 15.4998 15.2499 15.4998H34.9999C35.6902 15.4998 36.2499 14.9401 36.2499 14.2498C36.2499 13.5594 35.6902 12.9998 34.9999 12.9998H15.2499C11.248 12.9998 7.99988 16.2356 7.99988 20.2418V20.3004V20.3591V20.4179V20.4769V20.5359V20.595V20.6542V20.7136V20.773V20.8325V20.8921V20.9518V21.0116V21.0715V21.1315V21.1916V21.2518V21.3121V21.3725V21.4329V21.4935V21.5541V21.6149V21.6757V21.7366V21.7977V21.8588V21.92V21.9812V22.0426V22.1041V22.1656V22.2272V22.289V22.3508V22.4126V22.4746V22.5367V22.5988V22.661V22.7234V22.7857V22.8482V22.9108V22.9734V23.0361V23.0989V23.1618V23.2247V23.2878V23.3509V23.4141V23.4773V23.5407V23.6041V23.6676V23.7311V23.7948V23.8585V23.9223V23.9861V24.0501V24.1141V24.1781V24.2423V24.3065V24.3708V24.4351V24.4996V24.5641V24.6286V24.6933V24.758V24.8227V24.8876V24.9524V25.0174V25.0824V25.1475V25.2127V25.2779V25.3432V25.4085V25.4739V25.5394V25.6049V25.6705V25.7362V25.8019V25.8676V25.9335V25.9993V26.0653V26.1313V26.1973V26.2634V26.3296V26.3958V26.4621V26.5284V26.5948V26.6612V26.7277V26.7943V26.8609V26.9275V26.9942V27.0609V27.1277V27.1946V27.2615V27.3284V27.3954V27.4624V27.5295V27.5966V27.6638V27.731V27.7983V27.8656V27.9329V28.0003V28.0678V28.1353V28.2028V28.2703V28.338V28.4056V28.4733V28.541V28.6088V28.6766V28.7444V28.8123V28.8802V28.9482V29.0161V29.0842V29.1522V29.2203V29.2884V29.3566V29.4248V29.493V29.5613V29.6296V29.6979V29.7662V29.8346V29.903V29.9715V30.0399V30.1084V30.177V30.2455V30.3141V30.3827V30.4513V30.52V30.5887V30.6574V30.7261V30.7949V30.8637V30.9325V31.0013V31.0701V31.139V31.2079V31.2768V31.3457V31.4146V31.4836V31.5526V31.6216V31.6906V31.7596V31.8287V31.8977V31.9668V32.0359V32.105V32.1741V32.2433V32.3124V32.3816V32.4508V32.5199V32.5891V32.6583V32.7276V32.7968V32.866V32.9353V33.0045V33.0738V33.143V33.2123V33.2816V33.3508V33.4201V33.4894V33.5587V33.628V33.6973V33.7666V33.8359V33.9052V33.9745V34.0438V34.1131V34.1825V34.2518V34.3211V34.3904V34.4597V34.529V34.5983V34.6676V34.7369V34.8061V34.8754V34.9447V35.0139V35.0832V35.1525V35.2217V35.2909V35.3602V35.4294V35.4986V35.5678V35.637V35.7062V35.7753V35.8445V35.9136V35.9827V36.0519V36.121V36.19V36.2591V36.3282V36.3972V36.4662V36.5352V36.6042V36.6732V36.7422V36.8111V36.88V36.9489V37.0178V37.0866V37.1555V37.2243V37.2931V37.3618V37.4306V37.4993V37.568V37.6367V37.7053V37.7739V37.8425V37.9111V37.9796V38.0481V38.1166V38.1851V38.2535V38.3219V38.3903V38.4586V38.5269V38.5952V38.6634V38.7316V38.7998V38.8679V38.936V39.0041V39.0722V39.1402V39.2081V39.2761V39.344V39.4118V39.4796V39.5474V39.6152V39.6829V39.7505V39.8182V39.8857V39.9533V40.0208V40.0882V40.1557V40.223V40.2904V40.3576V40.4249V40.4921V40.5592V40.6263V40.6934V40.7604V40.8274V40.8943V40.9611V41.028V41.0947V41.1614V41.2281V41.2947V41.3613V41.4278V41.4943V41.5607V41.627V41.6933V41.7596V41.8258V41.8919V41.958V42.024V42.09V42.1559V42.2217V42.2875V42.3533V42.4189V42.4846V42.5501V42.6156V42.681V42.7464V42.8117V42.877V42.9422V43.0073V43.0723V43.1373V43.2023V43.2671V43.3319V43.3966V43.4613V43.5259V43.5904V43.6549V43.7193V43.7836V43.8479V43.912V43.9761V44.0402V44.1042V44.168V44.2319V44.2956V44.3593V44.4229V44.4864V44.5499V44.6132V44.6765V44.7398V44.8029V44.866V44.929V44.9919V45.0547V45.1175V45.1801V45.2427V45.3052V45.3677V45.43V45.4923V45.5545V45.6166V45.6786V45.7405V45.8023V45.8641V45.9258V45.9874V46.0489V46.1103V46.1716V46.2328V46.294V46.355V46.416V46.4769V46.5377V46.5984V46.659V46.7195V46.7799V46.8402V46.9005V46.9606V47.0206V47.0806V47.1404V47.2002V47.2599V47.3194V47.3789V47.4383V47.4975V47.5567V47.6158V47.6747V47.7336V47.7924V47.851V47.9096V47.9681V48.0264V48.0847V48.1428V48.2009V48.2588V48.3167V48.3744V48.432V48.4895V48.547V48.6043V48.6615V48.7185V48.7755V48.8324V48.8892V48.9458V49.0023V49.0588V49.1151V49.1713V49.2274V49.2833V49.3392V49.3949V49.4506V49.5061V49.5615V49.6168V49.6719V49.727V49.7819V49.8367V49.8914V49.946V50.0004V50.0548V50.109V50.1631V50.217V50.2709V50.3246V50.3782V50.4317V50.485V50.5382V50.5913V50.6443V50.6972V50.7499V50.8025V50.8549V50.9073V50.9595V51.0116V51.0635V51.1153V51.167V51.2186V51.27V51.3213V51.3725V51.4235V51.4744V51.5252V51.5758V51.6263V51.6766V51.7269V51.777V51.8269V51.8767V51.9264V51.9759V52.0253V52.0746V52.1237V52.1727V52.2215V52.2702V52.3187V52.3672V52.4154V52.4635V52.5115V52.5594V52.607V52.6546V52.702V52.7492C7.99988 56.7566 11.2491 59.9868 15.2498 59.9869L39.0034 59.9872V66.7222H30.549C29.8587 66.7222 29.299 67.2818 29.299 67.9722C29.299 68.6625 29.8587 69.2222 30.549 69.2222H40.2534H49.9578C50.6482 69.2222 51.2078 68.6625 51.2078 67.9722C51.2078 67.2818 50.6482 66.7222 49.9578 66.7222H41.5034V59.9872L61.9998 59.9875C66.0039 59.9876 69.2499 56.7416 69.2499 52.7375V47.2498C69.2499 46.0071 68.2425 44.9998 66.9999 44.9998H17.2499C16.5595 44.9998 15.9999 45.5594 15.9999 46.2498C15.9999 46.9401 16.5595 47.4998 17.2499 47.4998H66.7499V52.7375C66.7499 55.3609 64.6232 57.4875 61.9998 57.4875L40.3459 57.4872C40.3154 57.485 40.2845 57.4839 40.2534 57.4839C40.2223 57.4839 40.1915 57.485 40.1609 57.4872L15.2498 57.4869C12.6231 57.4869 10.4999 55.3692 10.4999 52.7492V52.702V52.6546V52.607V52.5594V52.5115V52.4635V52.4154V52.3672V52.3187V52.2702V52.2215V52.1727V52.1237V52.0746V52.0253V51.9759V51.9264V51.8767V51.8269V51.777V51.7269V51.6766V51.6263V51.5758V51.5252V51.4744V51.4235V51.3725V51.3213V51.27V51.2186V51.167V51.1153V51.0635V51.0116V50.9595V50.9073V50.8549V50.8025V50.7499V50.6972V50.6443V50.5913V50.5382V50.485V50.4317V50.3782V50.3246V50.2709V50.217V50.1631V50.109V50.0548V50.0004V49.946V49.8914V49.8367V49.7819V49.727V49.6719V49.6168V49.5615V49.5061V49.4506V49.3949V49.3392V49.2833V49.2274V49.1713V49.1151V49.0588V49.0023V48.9458V48.8892V48.8324V48.7755V48.7185V48.6615V48.6043V48.547V48.4895V48.432V48.3744V48.3167V48.2588V48.2009V48.1428V48.0847V48.0264V47.9681V47.9096V47.851V47.7924V47.7336V47.6747V47.6158V47.5567V47.4975V47.4383V47.3789V47.3194V47.2599V47.2002V47.1404V47.0806V47.0206V46.9606V46.9005V46.8402V46.7799V46.7195V46.659V46.5984V46.5377V46.4769V46.416V46.355V46.294V46.2328V46.1716V46.1103V46.0489V45.9874V45.9258V45.8641V45.8023V45.7405V45.6786V45.6166V45.5545V45.4923V45.43V45.3677V45.3052V45.2427V45.1801V45.1175V45.0547V44.9919V44.929V44.866V44.8029V44.7398V44.6765V44.6132V44.5499V44.4864V44.4229V44.3593V44.2956V44.2319V44.168V44.1042V44.0402V43.9761V43.912V43.8479V43.7836V43.7193V43.6549V43.5904V43.5259V43.4613V43.3966V43.3319V43.2671V43.2023V43.1373V43.0723V43.0073V42.9422V42.877V42.8117V42.7464V42.681V42.6156V42.5501V42.4846V42.4189V42.3533V42.2875V42.2217V42.1559V42.09V42.024V41.958V41.8919V41.8258V41.7596V41.6933V41.627V41.5607V41.4943V41.4278V41.3613V41.2947V41.2281V41.1614V41.0947V41.028V40.9611V40.8943V40.8274V40.7604V40.6934V40.6263V40.5592V40.4921V40.4249V40.3576V40.2904V40.223V40.1557V40.0882V40.0208V39.9533V39.8857V39.8182V39.7505V39.6829V39.6152V39.5474V39.4796V39.4118V39.344V39.2761V39.2081V39.1402V39.0722V39.0041V38.936V38.8679V38.7998V38.7316V38.6634V38.5952V38.5269V38.4586V38.3903V38.3219V38.2535V38.1851V38.1166V38.0481V37.9796V37.9111V37.8425V37.7739V37.7053V37.6367V37.568V37.4993V37.4306V37.3618V37.2931V37.2243V37.1555V37.0866V37.0178V36.9489V36.88V36.8111V36.7422V36.6732V36.6042V36.5352V36.4662V36.3972V36.3282V36.2591V36.19V36.121V36.0519V35.9827V35.9136V35.8445V35.7753V35.7062V35.637V35.5678V35.4986V35.4294V35.3602V35.2909V35.2217V35.1525V35.0832V35.0139V34.9447V34.8754V34.8061V34.7369V34.6676V34.5983V34.529V34.4597V34.3904V34.3211V34.2518V34.1825V34.1131V34.0438V33.9745V33.9052V33.8359V33.7666V33.6973V33.628V33.5587V33.4894V33.4201V33.3508V33.2816V33.2123V33.143V33.0738V33.0045V32.9353V32.866V32.7968V32.7276V32.6583V32.5891V32.5199V32.4508V32.3816V32.3124V32.2433V32.1741V32.105V32.0359V31.9668V31.8977V31.8287V31.7596V31.6906V31.6216V31.5526V31.4836V31.4146V31.3457V31.2768V31.2079V31.139V31.0701V31.0013V30.9325V30.8637V30.7949V30.7261V30.6574V30.5887V30.52V30.4513V30.3827V30.3141V30.2455V30.177V30.1084V30.0399V29.9715V29.903V29.8346V29.7662V29.6979V29.6296V29.5613V29.493V29.4248V29.3566V29.2884V29.2203V29.1522V29.0842V29.0161V28.9482V28.8802V28.8123V28.7444V28.6766V28.6088V28.541V28.4733V28.4056V28.338V28.2703V28.2028V28.1353V28.0678V28.0003V27.9329V27.8656V27.7983V27.731V27.6638V27.5966V27.5295V27.4624V27.3954V27.3284V27.2615V27.1946V27.1277V27.0609V26.9942V26.9275V26.8609V26.7943V26.7277V26.6612V26.5948V26.5284V26.4621V26.3958V26.3296V26.2634V26.1973V26.1313V26.0653V25.9993V25.9335V25.8676V25.8019V25.7362V25.6705V25.6049V25.5394V25.4739V25.4085V25.3432V25.2779V25.2127V25.1475V25.0824V25.0174V24.9524V24.8876V24.8227V24.758V24.6933V24.6286V24.5641V24.4996V24.4351V24.3708V24.3065V24.2423V24.1781V24.1141V24.0501V23.9861V23.9223V23.8585V23.7948V23.7311V23.6676V23.6041V23.5407V23.4773V23.4141V23.3509V23.2878V23.2247V23.1618V23.0989V23.0361V22.9734V22.9108V22.8482V22.7857V22.7234V22.661V22.5988V22.5367V22.4746V22.4126V22.3508V22.289V22.2272V22.1656V22.1041V22.0426V21.9812V21.92V21.8588V21.7977V21.7366V21.6757V21.6149V21.5541V21.4935V21.4329V21.3725V21.3121V21.2518V21.1916V21.1315V21.0715V21.0116V20.9518V20.8921V20.8325V20.773V20.7136V20.6542V20.595V20.5359V20.4769V20.4179V20.3591V20.3004V20.2418Z"
        fill="#ffffff" />
    <path d="M34.4401 14.2498L47.6346 14.2498" stroke="url(#paint1_linear_10310_449)"
        stroke-width="2.5" stroke-linecap="round" />
    <path
        d="M57.7883 12.25C57.449 12.25 57.1123 12.2621 56.7787 12.2861C55.8112 12.3554 55.0738 13.0669 54.8624 13.9375L54.4163 15.7747C54.3922 15.8739 54.3029 15.9929 54.132 16.0546C53.817 16.1682 53.5089 16.2961 53.2084 16.4375C53.0443 16.5147 52.897 16.4938 52.8098 16.4407L51.1951 15.4569C50.4304 14.991 49.4064 15.009 48.6732 15.6433C48.1629 16.0848 47.6849 16.5628 47.2434 17.0731C46.6091 17.8063 46.5911 18.8303 47.057 19.595L48.0408 21.2097C48.0939 21.2969 48.1148 21.4442 48.0376 21.6083C47.8962 21.9088 47.7683 22.2169 47.6546 22.5319C47.593 22.7028 47.474 22.7921 47.3748 22.8162L45.5376 23.2623C44.667 23.4737 43.9555 24.2111 43.8861 25.1786C43.8622 25.5122 43.8501 25.8489 43.8501 26.1882C43.8501 26.5276 43.8622 26.8643 43.8861 27.1979C43.9555 28.1654 44.667 28.9028 45.5376 29.1142L47.3748 29.5603C47.474 29.5843 47.593 29.6737 47.6546 29.8446C47.7683 30.1595 47.8962 30.4677 48.0376 30.7681C48.1148 30.9323 48.0939 31.0796 48.0408 31.1668L47.057 32.7815C46.5911 33.5462 46.6091 34.5701 47.2434 35.3033C47.6849 35.8137 48.1629 36.2916 48.6732 36.7332C49.4064 37.3674 50.4304 37.3854 51.1951 36.9195L52.8098 35.9358C52.897 35.8826 53.0443 35.8618 53.2084 35.939C53.5089 36.0803 53.817 36.2083 54.132 36.3219C54.3029 36.3836 54.3922 36.5026 54.4163 36.6017L54.8624 38.439C55.0738 39.3095 55.8112 40.0211 56.7787 40.0904C57.1123 40.1143 57.449 40.1265 57.7883 40.1265C58.1277 40.1265 58.4644 40.1143 58.798 40.0904C59.7655 40.0211 60.5029 39.3095 60.7143 38.4389L61.1604 36.6017C61.1844 36.5026 61.2738 36.3836 61.4447 36.3219C61.7596 36.2082 62.0678 36.0803 62.3682 35.939C62.5324 35.8618 62.6797 35.8826 62.7669 35.9358L64.3816 36.9195C65.1463 37.3854 66.1702 37.3674 66.9034 36.7332C67.4138 36.2916 67.8917 35.8137 68.3333 35.3033C68.9675 34.5701 68.9855 33.5461 68.5196 32.7815L67.5359 31.1668C67.4827 31.0796 67.4619 30.9323 67.5391 30.7681C67.6804 30.4677 67.8083 30.1595 67.922 29.8446C67.9837 29.6737 68.1027 29.5843 68.2018 29.5603L70.039 29.1142C70.9096 28.9028 71.6212 28.1654 71.6905 27.1979C71.7144 26.8643 71.7266 26.5276 71.7266 26.1882C71.7266 25.8489 71.7144 25.5122 71.6905 25.1786C71.6212 24.2111 70.9096 23.4737 70.039 23.2623L68.2018 22.8162C68.1027 22.7921 67.9837 22.7028 67.922 22.5319C67.8083 22.2169 67.6804 21.9088 67.5391 21.6083C67.4619 21.4442 67.4827 21.2969 67.5359 21.2097L68.5196 19.595C68.9855 18.8303 68.9675 17.8063 68.3333 17.0731C67.8917 16.5628 67.4138 16.0848 66.9034 15.6433C66.1702 15.009 65.1463 14.991 64.3816 15.4569L62.7669 16.4407C62.6797 16.4938 62.5324 16.5147 62.3682 16.4375C62.0678 16.2961 61.7596 16.1682 61.4447 16.0546C61.2738 15.9929 61.1844 15.8739 61.1604 15.7747L60.7143 13.9375C60.5029 13.0669 59.7655 12.3554 58.798 12.2861C58.4644 12.2621 58.1277 12.25 57.7883 12.25Z"
        stroke="#AEACFA" stroke-width="2.5" stroke-linecap="round" stroke-linejoin="round" />
    <circle cx="57.7882" cy="26.1881" r="4.28869" stroke="#AEACFA" stroke-width="2.5"
        stroke-linecap="round" stroke-linejoin="round" />
    <defs>
        <linearGradient id="paint0_linear_10310_449" x1="30.5" y1="25.75" x2="30.5" y2="61"
            gradientUnits="userSpaceOnUse">
            <stop stop-color="#000000" />
            <stop offset="1" stop-color="#000000" stop-opacity="0" />
        </linearGradient>
        <linearGradient id="paint1_linear_10310_449" x1="47.4177" y1="14.6326" x2="38.0174"
            y2="15.0382" gradientUnits="userSpaceOnUse">
            <stop stop-color="white" stop-opacity="0" />
            <stop offset="1" stop-color="#ffffff" />
        </linearGradient>
    </defs>
</svg>
