<svg width="80" height="80" viewBox="0 0 80 80" fill="none" xmlns="http://www.w3.org/2000/svg">
    <path
        d="M0 16C0 7.16344 7.16344 0 16 0H45C53.8366 0 61 7.16344 61 16V45C61 53.8366 53.8366 61 45 61H16C7.16344 61 0 53.8366 0 45V16Z"
        fill="url(#paint0_linear_10310_373)" />
    <path
        d="M32.75 22.25H21C17.6863 22.25 15 24.9363 15 28.25V62.75C15 66.0637 17.6863 68.75 21 68.75H48C51.3137 68.75 54 66.0637 54 62.75V45.25C54 41.9363 51.3137 39.25 48 39.25H23.4815"
        stroke="#FFFFFF" stroke-width="2.5" stroke-linecap="round" stroke-linejoin="round" />
    <path d="M17.489 39.25H25.5" stroke="url(#paint1_linear_10310_373)" stroke-width="2.5"
        stroke-linecap="round" />
    <path fill-rule="evenodd" clip-rule="evenodd"
        d="M25 49.0049C26.1046 49.0049 27 48.1095 27 47.0049C27 45.9003 26.1046 45.0049 25 45.0049C23.8954 45.0049 23 45.9003 23 47.0049C23 48.1095 23.8954 49.0049 25 49.0049ZM25 56.0049C26.1046 56.0049 27 55.1095 27 54.0049C27 52.9003 26.1046 52.0049 25 52.0049C23.8954 52.0049 23 52.9003 23 54.0049C23 55.1095 23.8954 56.0049 25 56.0049ZM27 61.0049C27 62.1095 26.1046 63.0049 25 63.0049C23.8954 63.0049 23 62.1095 23 61.0049C23 59.9003 23.8954 59.0049 25 59.0049C26.1046 59.0049 27 59.9003 27 61.0049ZM35 49.0049C36.1046 49.0049 37 48.1095 37 47.0049C37 45.9003 36.1046 45.0049 35 45.0049C33.8954 45.0049 33 45.9003 33 47.0049C33 48.1095 33.8954 49.0049 35 49.0049ZM37 54.0049C37 55.1095 36.1046 56.0049 35 56.0049C33.8954 56.0049 33 55.1095 33 54.0049C33 52.9003 33.8954 52.0049 35 52.0049C36.1046 52.0049 37 52.9003 37 54.0049ZM35 63.0049C36.1046 63.0049 37 62.1095 37 61.0049C37 59.9003 36.1046 59.0049 35 59.0049C33.8954 59.0049 33 59.9003 33 61.0049C33 62.1095 33.8954 63.0049 35 63.0049ZM47 47.0049C47 48.1095 46.1046 49.0049 45 49.0049C43.8954 49.0049 43 48.1095 43 47.0049C43 45.9003 43.8954 45.0049 45 45.0049C46.1046 45.0049 47 45.9003 47 47.0049ZM45 56.0049C46.1046 56.0049 47 55.1095 47 54.0049C47 52.9003 46.1046 52.0049 45 52.0049C43.8954 52.0049 43 52.9003 43 54.0049C43 55.1095 43.8954 56.0049 45 56.0049ZM47 61.0049C47 62.1095 46.1046 63.0049 45 63.0049C43.8954 63.0049 43 62.1095 43 61.0049C43 59.9003 43.8954 59.0049 45 59.0049C46.1046 59.0049 47 59.9003 47 61.0049Z"
        fill="#AEACFA" />
    <path
        d="M71.7544 27.0116V29.25C71.7544 31.4591 69.9635 33.25 67.7544 33.25L42.25 33.25C40.0409 33.25 38.25 31.4591 38.25 29.25L38.25 12.25C38.25 10.0409 40.0409 8.25 42.25 8.25L67.7544 8.25C69.9635 8.25 71.7544 10.0409 71.7544 12.25V18.2621C71.7544 18.8144 71.3067 19.2621 70.7544 19.2621L39.25 19.2621C38.6977 19.2621 38.25 18.8144 38.25 18.2621V14.75C38.25 14.1977 38.6977 13.75 39.25 13.75L67.25 13.75"
        stroke="#FFFFFF" stroke-width="2.5" stroke-linecap="round" />
    <path d="M71.75 21.0947V26.5947" stroke="url(#paint2_linear_10310_373)" stroke-width="2.5"
        stroke-linecap="square" />
    <defs>
        <linearGradient id="paint0_linear_10310_373" x1="30.5" y1="25.75" x2="30.5" y2="61"
            gradientUnits="userSpaceOnUse">
            <stop stop-color="#000000" />
            <stop offset="1" stop-color="#000000" stop-opacity="0" />
        </linearGradient>
        <linearGradient id="paint1_linear_10310_373" x1="17.4095" y1="39.3296" x2="21.4971"
            y2="39.22" gradientUnits="userSpaceOnUse">
            <stop stop-color="white" stop-opacity="0" />
            <stop offset="1" stop-color="#FFFFFF" />
        </linearGradient>
        <linearGradient id="paint2_linear_10310_373" x1="71.6944" y1="20.9417" x2="71.8481"
            y2="24.4933" gradientUnits="userSpaceOnUse">
            <stop stop-color="white" stop-opacity="0" />
            <stop offset="1" stop-color="#FFFFFF" />
        </linearGradient>
    </defs>
</svg>
