<svg width="80" height="80" viewBox="0 0 80 80" fill="none" xmlns="http://www.w3.org/2000/svg">
    <path
        d="M0 16C0 7.16344 7.16344 0 16 0H45C53.8366 0 61 7.16344 61 16V45C61 53.8366 53.8366 61 45 61H16C7.16344 61 0 53.8366 0 45V16Z"
        fill="url(#paint0_linear_10310_392)" />
    <path fill-rule="evenodd" clip-rule="evenodd"
        d="M35.5202 8.12012C32.8324 8.12012 30.6536 10.299 30.6536 12.9868C30.6536 14.1347 29.8927 15.2269 28.6971 15.771C27.5009 16.3153 26.3534 16.9474 25.2628 17.659C24.0735 18.435 22.6414 18.5363 21.5582 17.9109C19.2305 16.567 16.2541 17.3645 14.9102 19.6922L9.86653 28.4281C8.52263 30.7558 9.32016 33.7322 11.6478 35.0761C12.8186 35.752 13.5026 37.1352 13.4563 38.6616C13.4482 38.9283 13.4441 39.196 13.4441 39.4646C13.4441 39.9241 13.456 40.3809 13.4796 40.8348C13.568 42.5377 12.8473 44.1063 11.5517 44.8877C9.29802 46.2467 8.53306 49.1512 9.8249 51.4441L10.9139 50.8305L9.8249 51.4441L13.7732 58.4519C15.2202 61.02 18.6 61.7224 20.9504 59.9434C21.6616 59.405 22.7382 59.4243 23.569 60.0661C24.8504 61.0562 26.227 61.9294 27.6829 62.6699C29.4684 63.578 30.6536 65.2346 30.6536 67.0138C30.6536 69.7016 32.8324 71.8805 35.5202 71.8805H44.4759C47.1637 71.8805 49.3425 69.7016 49.3425 67.0138V66.7433C49.3425 64.8648 50.5647 63.0975 52.3978 62.0452C54.2061 61.0072 56.2996 60.8558 57.9195 61.7911L58.4367 62.0897C60.7643 63.4336 63.7407 62.636 65.0846 60.3083L66.546 57.7771L64.01 57.1697L62.9196 59.0583C62.266 60.1903 60.8186 60.5781 59.6867 59.9246L59.1695 59.626C56.6012 58.1432 53.5391 58.5075 51.1532 59.877C48.7582 61.2518 46.8425 63.7467 46.8425 66.7433V67.0138C46.8425 68.3209 45.783 69.3805 44.4759 69.3805H35.5202C34.2131 69.3805 33.1536 68.3209 33.1536 67.0138C33.1536 64.0804 31.2314 61.6699 28.8163 60.4416C27.5007 59.7725 26.2563 58.9831 25.0974 58.0878C23.5015 56.8549 21.1753 56.6378 19.4416 57.95C18.2986 58.8152 16.655 58.4736 15.9513 57.2247L12.003 50.2169C11.3748 49.1019 11.7468 47.6894 12.8427 47.0285C15.0862 45.6756 16.1021 43.1295 15.9762 40.7052C15.9549 40.2945 15.9441 39.8809 15.9441 39.4646C15.9441 39.2213 15.9478 38.9789 15.9551 38.7374C16.0238 36.473 15.0117 34.1315 12.8978 32.9111C11.7659 32.2575 11.3781 30.8101 12.0316 29.6781L17.0753 20.9422C17.7288 19.8103 19.1762 19.4224 20.3082 20.076C22.3487 21.254 24.7974 20.9478 26.6289 19.7528C27.6149 19.1094 28.6519 18.5382 29.7325 18.0464C31.6644 17.1673 33.1536 15.275 33.1536 12.9868C33.1536 11.6797 34.2131 10.6201 35.5202 10.6201H44.4759C45.783 10.6201 46.8425 11.6797 46.8425 12.9868C46.8425 15.4937 48.4207 17.5873 50.4728 18.6765C50.6724 18.7824 50.8704 18.8912 51.0666 19.0027C53.4416 20.3526 56.5129 20.6933 59.0428 19.1676L59.3336 18.9923C60.4061 18.3455 61.7968 18.6463 62.5062 19.6785L63.7915 21.5486C63.9148 21.7281 64.0101 21.9189 64.0782 22.1155L66.6242 21.986C66.5025 21.3396 66.2472 20.708 65.8518 20.1327L64.5665 18.2625C63.1078 16.14 60.248 15.5214 58.0425 16.8514L57.7518 17.0268C56.1773 17.9763 54.0938 17.8477 52.3019 16.8293C52.0848 16.7059 51.8658 16.5855 51.6448 16.4682C50.2412 15.7232 49.3425 14.3921 49.3425 12.9868C49.3425 10.299 47.1637 8.12012 44.4759 8.12012H35.5202Z"
        fill="#FFFFFF" />
    <path
        d="M67.4451 50.9331H40.0793C33.9932 50.9331 29.0593 45.9993 29.0593 39.9131V39.9131C29.0593 33.8269 33.9932 28.8931 40.0793 28.8931H63.3659C65.9361 28.8931 67.5936 26.171 66.4137 23.8876L65.18 21.4998"
        stroke="#FFFFFF" stroke-width="2.5" stroke-linecap="round" />
    <circle cx="40" cy="40" r="5" fill="#AEACFA" />
    <line x1="67.4639" y1="53.5288" x2="65.0215" y2="57.9477" stroke="url(#paint1_linear_10310_392)"
        stroke-width="2.5" stroke-linecap="round" stroke-linejoin="round" />
    <defs>
        <linearGradient id="paint0_linear_10310_392" x1="30.5" y1="25.75" x2="30.5" y2="61"
            gradientUnits="userSpaceOnUse">
            <stop stop-color="#000000" />
            <stop offset="1" stop-color="#000000" stop-opacity="0" />
        </linearGradient>
        <linearGradient id="paint1_linear_10310_392" x1="66.5" y1="54" x2="64.3875" y2="57.8252"
            gradientUnits="userSpaceOnUse">
            <stop stop-color="#FFFFFF" stop-opacity="0" />
            <stop offset="0.842582" stop-color="#FFFFFF" />
        </linearGradient>
    </defs>
</svg>
