<?xml version="1.0" standalone="no"?>
<!DOCTYPE svg PUBLIC "-//W3C//DTD SVG 1.1//EN" "http://www.w3.org/Graphics/SVG/1.1/DTD/svg11.dtd" >
<svg xmlns="http://www.w3.org/2000/svg">
<metadata>Generated by IcoMoon</metadata>
<defs>
<font id="mews_icons" horiz-adv-x="1024">
<font-face units-per-em="1024" ascent="960" descent="-64" />
<missing-glyph horiz-adv-x="1024" />
<glyph unicode="&#x20;" horiz-adv-x="512" d="" />
<glyph unicode="&#xe900;" glyph-name="accounting_ledger" d="M938.125 811.094c0 5.547-1.28 11.093-3.409 16.213l-0.427 0.427c-2.133 5.12-5.12 9.387-8.956 13.227 0 0 0 0 0 0.427-1.28 1.28-2.987 1.707-4.689 2.987-2.987 2.133-5.547 4.693-8.956 5.973-3.413 1.28-7.249 1.707-11.085 2.133-1.707 0-3.413 0.853-5.12 0.853h-164.587c-23.454 0-42.641-19.2-42.641-42.667s19.187-42.667 42.641-42.667h63.531l-114.274-117.76c-5.116-5.12-11.511-8.96-18.334-10.667s-13.645-1.707-20.041 0.427c-0.427 0-0.853 0.427-1.28 0.427l-208.934 57.6c-21.322 5.973-43.921 5.973-65.241 0s-40.508-17.493-56.285-33.28l-213.199-219.733c-16.204-17.067-16.204-43.947 0.852-60.16s43.919-16.213 60.549 0.853l212.773 219.733c5.117 5.12 11.087 8.533 17.483 10.667 6.396 1.707 13.218 1.707 20.041 0l208.508-57.173c21.747-6.4 44.348-6.827 66.095-1.28 22.17 5.547 42.21 17.493 57.988 33.707l111.718 114.347v-64.427c0-23.467 19.187-42.667 42.637-42.667 23.454 0 42.641 19.2 42.641 42.667v169.813c0-0.427 0-0.427 0 0zM602.974 255.574l-116.407 43.093c-7.671 2.987-13.218 7.68-16.201 12.8-2.987 5.12-3.84 10.667-2.987 16.213 1.28 5.547 4.267 11.093 10.236 15.36s13.645 7.253 22.174 7.253h114.274c23.45 0 42.637 19.2 42.637 42.667s-19.187 42.667-42.637 42.667h-42.214c-1.707 22.187-20.041 39.68-42.641 39.68s-41.361-17.92-42.641-40.107c-22.17-2.133-43.063-10.24-60.973-23.893-21.32-16.213-36.67-39.253-42.214-65.707s-0.853-53.76 12.792-77.227c13.645-23.040 35.393-40.533 60.123-49.493l115.981-42.667c7.676-2.987 13.218-7.68 16.201-12.8 2.987-5.12 3.84-11.093 2.987-16.213-1.28-5.12-4.262-11.093-10.231-15.36-5.973-4.267-13.645-7.253-22.174-7.253h-113.425c-23.45 0-42.638-19.2-42.638-42.667s19.188-42.667 42.638-42.667h41.788c1.707-22.187 20.041-39.253 42.214-39.253s40.508 17.067 42.641 38.827c22.174 2.133 43.917 10.24 61.828 23.893 21.321 16.213 36.241 39.253 41.788 65.707 5.542 26.453 0.849 53.76-12.796 77.227s-35.388 40.533-60.122 49.92z" />
<glyph unicode="&#xe901;" glyph-name="accounting_report" d="M896 469.334c23.467 0 42.667 19.2 42.667 42.667s-19.2 42.667-42.667 42.667h-128v85.333h128c23.467 0 42.667 19.2 42.667 42.667s-19.2 42.667-42.667 42.667h-128v85.333c0 23.467-19.2 42.667-42.667 42.667h-426.667c-23.467 0-42.667-19.2-42.667-42.667v-85.333h-128c-23.467 0-42.667-19.2-42.667-42.667s19.2-42.667 42.667-42.667h128v-85.333h-128c-23.467 0-42.667-19.2-42.667-42.667s19.2-42.667 42.667-42.667h128v-85.333h-128c-23.467 0-42.667-19.2-42.667-42.667s19.2-42.667 42.667-42.667h128v-85.333h-128c-23.467 0-42.667-19.2-42.667-42.667s19.2-42.667 42.667-42.667h128v-85.333c0-23.467 19.2-42.667 42.667-42.667h426.667c23.467 0 42.667 19.2 42.667 42.667v85.333h128c23.467 0 42.667 19.2 42.667 42.667s-19.2 42.667-42.667 42.667h-128v85.333h128c23.467 0 42.667 19.2 42.667 42.667s-19.2 42.667-42.667 42.667h-128v85.333h128zM682.667 85.334h-341.333v682.667h341.333v-682.667zM512 384c26.027 0 42.667-19.2 42.667-37.12s-16.64-37.547-42.667-37.547c-0.853 0-1.28 0-2.133 0-5.973-0.427-12.373 1.28-19.2 5.12s-13.653 10.24-19.2 19.627c-12.373 20.053-38.4 26.453-58.453 14.080s-26.453-38.4-14.080-58.453c12.373-20.053 28.587-37.12 48.64-49.067 6.827-4.267 14.507-7.253 21.76-9.813v-17.493c0-23.467 19.2-42.667 42.667-42.667s42.667 19.2 42.667 42.667v18.347c48.64 16.64 85.333 60.16 85.333 115.2 0 69.973-60.16 122.453-128 122.453-26.027 0-42.667 19.2-42.667 37.547s16.64 37.547 42.667 37.547c0.853 0 1.28 0 2.133 0 5.973 0.427 12.373-1.28 19.2-5.12s13.653-10.24 19.2-19.627c12.373-20.053 38.4-26.453 58.453-14.080s26.453 38.4 14.507 58.453c-12.373 20.053-28.587 37.12-48.64 49.067-6.827 4.267-14.507 7.253-21.76 9.813v17.067c0 23.467-19.2 42.667-42.667 42.667-23.893 0-43.093-19.2-43.093-42.667v-18.347c-48.64-16.64-85.333-60.16-85.333-115.2 0-69.973 59.733-122.453 128-122.453z" />
<glyph unicode="&#xe902;" glyph-name="action_log" d="M256 768c-23.564 0-42.667-19.103-42.667-42.667v-597.333c0-23.565 19.103-42.667 42.667-42.667h512c23.565 0 42.667 19.102 42.667 42.667v431.916c0 11.924-4.992 23.305-13.76 31.383l-179.597 165.417c-7.876 7.255-18.197 11.283-28.907 11.283h-332.403zM128 725.334c0 70.692 57.308 128 128 128h332.403c32.132 0 63.087-12.083 86.716-33.85l179.597-165.417c26.313-24.236 41.284-58.377 41.284-94.15v-431.916c0-70.694-57.306-128-128-128h-512c-70.692 0-128 57.306-128 128v597.333zM469.333 426.667c0 23.565 19.102 42.667 42.667 42.667h170.667c23.565 0 42.667-19.102 42.667-42.667s-19.102-42.667-42.667-42.667h-170.667c-23.565 0-42.667 19.102-42.667 42.667zM469.333 256c0 23.565 19.102 42.667 42.667 42.667h170.667c23.565 0 42.667-19.102 42.667-42.667s-19.102-42.667-42.667-42.667h-170.667c-23.565 0-42.667 19.102-42.667 42.667zM298.667 426.667c0 23.565 19.103 42.667 42.667 42.667h42.667c23.564 0 42.667-19.102 42.667-42.667s-19.103-42.667-42.667-42.667h-42.667c-23.564 0-42.667 19.102-42.667 42.667zM298.667 256c0 23.565 19.103 42.667 42.667 42.667h42.667c23.564 0 42.667-19.102 42.667-42.667s-19.103-42.667-42.667-42.667h-42.667c-23.564 0-42.667 19.102-42.667 42.667z" />
<glyph unicode="&#xe903;" glyph-name="activity_report" d="M128 853.334h768c23.467 0 42.667-19.2 42.667-42.667v-563.2c0-23.467-19.2-42.667-42.667-42.667h-341.333v-41.387l96-89.6c17.067-15.787 18.347-43.093 2.133-60.16-15.787-17.067-43.093-18.347-60.16-2.133l-80.64 75.093-80.64-75.093c-17.067-16.213-43.947-14.933-60.16 2.133s-14.933 43.947 2.133 60.16l96 89.6v41.387h-341.333c-23.467 0-42.667 19.2-42.667 42.667v563.2c0 23.467 19.2 42.667 42.667 42.667zM170.667 290.134h682.667v477.867h-682.667v-477.867zM390.397 487.68l-56.32-84.48c-12.8-19.627-39.253-25.173-58.88-12.373-19.627 13.227-25.173 39.68-11.947 59.307l85.333 128c6.827 10.667 18.347 17.92 31.147 18.773 12.8 1.707 25.173-2.987 34.56-11.947l89.172-89.6 99.413 165.973c6.4 11.52 17.92 18.773 31.147 20.48s26.027-2.56 35.413-11.947l85.333-85.333c16.64-16.64 16.64-43.52 0-60.16s-43.52-16.64-60.16 0l-46.507 46.507-99.84-166.4c-6.4-11.52-17.92-18.773-31.147-20.48-13.227-1.28-26.027 2.987-35.413 12.373l-91.305 91.307z" />
<glyph unicode="&#xe904;" glyph-name="add_customer" d="M762.97 306.074h-45.632v45.675c0 23.479-19.191 42.688-42.645 42.688s-42.645-19.209-42.645-42.688v-45.675h-45.632c-23.454 0-42.645-19.209-42.645-42.688s19.191-42.688 42.645-42.688h45.632v-45.675c0-23.479 19.191-42.688 42.645-42.688s42.645 19.209 42.645 42.688v45.675h45.632c23.454 0 42.645 19.209 42.645 42.688s-19.191 42.688-42.645 42.688zM861.052 449.933c-49.468 49.519-116.42 77.264-186.359 77.264-64.397 0-126.656-23.905-174.421-66.593-3.836 11.098-11.938 20.489-23.454 25.186-8.956 3.84-18.765 7.258-28.147 9.818 18.765 8.964 36.25 20.491 51.174 35.431 35.396 35.431 55.014 83.242 55.014 133.187s-20.045 98.182-55.014 133.187c-35.392 35.858-83.156 55.921-133.478 55.921s-97.658-20.064-133.053-55.068c-35.396-35.431-55.013-83.668-55.013-133.613s19.617-98.182 55.013-133.187c14.926-15.368 32.837-26.894 51.601-35.858-25.587-7.684-50.321-18.782-72.923-33.724-38.807-25.613-70.791-60.617-92.541-101.598-22.602-40.981-34.116-86.656-34.116-133.184 0-23.479 19.191-42.688 42.645-42.688s42.645 19.209 42.645 42.688c0 32.439 8.103 64.457 23.455 93.060 15.352 28.599 37.528 52.932 64.821 70.861 26.866 17.929 57.998 28.599 90.408 31.59 32.41 2.987 64.821-2.138 94.673-14.942 2.987-1.28 5.969-1.28 9.382-1.707-26.867-42.261-41.793-91.354-41.793-142.153 0-70.007 27.721-137.028 77.189-186.547s116.42-77.265 186.359-77.265c69.939 0 136.892 27.746 186.359 77.265s77.188 116.54 77.188 186.547c-0.427 69.581-28.147 136.602-77.615 186.121zM293.443 737.649c19.617 19.21 45.631 30.309 72.924 30.309 27.719 0 53.733-11.099 72.925-30.309 19.187-19.209 30.276-45.676 30.276-72.996s-11.089-53.787-30.276-72.997c-19.192-19.209-45.206-30.308-72.925-30.308-27.293 0-53.733 10.672-72.924 30.308-19.19 19.21-29.852 45.676-29.852 72.997s10.662 53.787 29.852 72.996zM800.922 137.029c-33.69-33.297-78.895-52.079-126.229-52.079-47.339 0-92.54 18.782-126.229 52.079-33.263 33.297-52.028 78.972-52.028 126.357 0 47.381 18.765 92.634 52.028 126.357 33.263 33.297 78.891 52.079 126.229 52.079 47.334 0 92.54-18.782 126.229-52.079 33.263-33.297 52.028-78.976 52.028-126.357 0-47.386-18.765-92.634-52.028-126.357z" />
<glyph unicode="&#xe905;" glyph-name="add" d="M682.667 469.334h-128v128c0 23.467-19.2 42.667-42.667 42.667s-42.667-19.2-42.667-42.667v-128h-128c-23.467 0-42.667-19.2-42.667-42.667s19.2-42.667 42.667-42.667h128v-128c0-23.467 19.2-42.667 42.667-42.667s42.667 19.2 42.667 42.667v128h128c23.467 0 42.667 19.2 42.667 42.667s-19.2 42.667-42.667 42.667zM810.667 853.334h-597.333c-70.827 0-128-57.173-128-128v-597.333c0-70.827 57.173-128 128-128h597.333c70.827 0 128 57.173 128 128v597.333c0 70.827-57.173 128-128 128zM853.333 128c0-23.467-19.2-42.667-42.667-42.667h-597.333c-23.467 0-42.667 19.2-42.667 42.667v597.333c0 23.467 19.2 42.667 42.667 42.667h597.333c23.467 0 42.667-19.2 42.667-42.667v-597.333z" />
<glyph unicode="&#xe906;" glyph-name="archive" d="M810.667 768h-597.333c-23.467 0-42.667 19.2-42.667 42.667s19.2 42.667 42.667 42.667h597.333c23.467 0 42.667-19.2 42.667-42.667s-19.2-42.667-42.667-42.667zM213.333 597.334h597.333c23.467 0 42.667 19.2 42.667 42.667s-19.2 42.667-42.667 42.667h-597.333c-23.467 0-42.667-19.2-42.667-42.667s19.2-42.667 42.667-42.667zM810.667 426.667h-597.333c-23.467 0-42.667 19.2-42.667 42.667s19.2 42.667 42.667 42.667h597.333c23.467 0 42.667-19.2 42.667-42.667s-19.2-42.667-42.667-42.667zM870.4 341.334c18.773 0 36.267-7.68 49.067-20.907 12.373-13.227 19.2-30.72 19.2-48.64v-175.787c0-24.747-9.387-49.067-26.88-67.413-17.493-17.92-41.387-28.587-66.987-28.587h-665.6c-25.6 0-49.493 10.667-66.987 29.013s-26.88 42.667-26.88 67.413v175.787c0 17.493 6.827 34.987 19.2 48.213 12.8 13.227 30.293 20.907 49.067 20.907h256c23.467 0 42.667-19.2 42.667-42.667 0-17.493 6.827-34.133 17.92-45.653 11.52-11.947 26.453-18.347 41.813-18.347s30.293 6.4 41.813 18.347c11.093 11.52 17.92 28.16 17.92 45.653 0 23.467 19.2 42.667 42.667 42.667h256zM850.347 87.894c1.707 1.707 2.987 4.693 2.987 8.107v160h-202.24c-6.827-23.040-18.773-44.8-35.84-62.293-27.307-28.16-64-44.373-103.253-44.373s-76.373 16.213-103.253 44.373c-17.067 17.493-29.013 39.253-35.84 62.293h-202.24v-160c0-3.413 1.28-6.4 2.987-8.107s3.84-2.56 5.547-2.56h665.6c1.707 0 3.84 0.853 5.547 2.56z" />
<glyph unicode="&#xe907;" glyph-name="arrow_left" d="M895.996 469.398h-665.174l97.707 97.853c16.64 16.665 16.64 43.585 0 60.25s-43.52 16.665-60.16 0l-170.667-170.921c-3.84-3.849-6.827-8.546-8.96-13.675-4.267-10.257-4.267-22.221 0-32.905 2.133-4.702 5.12-9.399 8.96-13.248l170.667-170.923c16.64-16.661 43.52-16.661 60.16 0 16.64 16.666 16.64 43.588 0 60.254l-97.707 97.852h665.174c23.467 0 42.667 19.23 42.667 42.731s-19.2 42.731-42.667 42.731z" />
<glyph unicode="&#xe908;" glyph-name="arrow_right" d="M935.253 410.027c4.267 10.667 4.267 22.613 0 32.853-0.853 1.707-1.707 2.56-2.56 4.267-1.707 3.413-3.413 6.827-6.4 9.813l-170.667 170.667c-16.64 16.64-43.52 16.64-60.16 0s-16.64-43.947 0-60.587l97.707-97.707h-665.173c-23.467 0-42.667-19.2-42.667-42.667s19.2-42.667 42.667-42.667h665.173l-97.707-97.707c-16.64-16.64-16.64-43.947 0-60.587s43.52-16.64 60.16 0l170.667 170.667c2.987 2.987 4.693 6.4 6.4 9.813 0.853 1.28 2.133 2.56 2.56 3.84z" />
<glyph unicode="&#xe909;" glyph-name="assign" d="M857.6 410.88c-28.16 34.56-68.693 57.6-113.067 66.56l-174.080 34.56v231.68c0 30.72-13.653 59.307-36.267 79.36-22.187 19.627-51.627 30.293-81.067 30.293-14.933 0-29.865-2.56-43.518-7.68s-26.88-12.8-37.973-22.613c-11.093-9.813-20.48-21.76-26.88-35.413s-9.387-28.587-9.387-43.947v-353.707l-18.347 12.373c-12.8 8.533-27.307 14.507-42.667 17.92s-31.147 3.84-46.507 1.28c-15.36-2.133-30.293-7.253-43.52-15.36-13.653-7.68-25.6-17.92-34.987-30.72-14.507-19.2-22.187-42.24-21.333-66.56 0.853-23.893 9.813-46.933 25.173-65.28l192-228.267c8.533-9.813 20.48-15.36 32.853-15.36h449.278c21.76 0 40.107 16.64 42.24 38.4l25.6 250.453c4.693 43.947-9.387 87.467-37.547 122.027zM810.24 297.387l-21.333-212.053h-390.825l-179.2 213.333c-3.84 4.267-5.547 8.96-5.547 13.227 0 3.84 1.28 8.533 4.267 12.8 2.133 2.56 5.12 5.547 9.387 7.68 3.84 2.56 8.533 4.267 13.653 5.12 5.12 0.427 10.24 0.427 15.36-0.853 5.12-0.853 9.387-2.987 13.227-5.12l84.907-57.173c13.227-8.533 29.867-9.387 43.947-2.133 14.080 7.68 22.613 21.76 22.613 37.547v433.92c0 2.56 0.427 5.12 1.707 7.68s2.987 5.547 5.972 8.107c2.56 2.133 6.4 4.693 10.667 5.973 4.267 1.707 8.96 2.56 13.653 2.56 9.813 0 18.773-3.413 24.32-8.533s7.68-10.667 7.68-15.787v-267.093c0-20.053 14.507-37.547 34.56-41.813l208.213-41.387c26.453-5.12 49.067-18.773 63.573-36.693 14.933-17.92 21.333-38.827 19.2-59.307z" />
<glyph unicode="&#xe90a;" glyph-name="availability" d="M896 682.667c-23.467 0-42.667-19.2-42.667-42.667v-170.667h-426.667v42.667c0 46.933-38.4 85.333-85.333 85.333h-170.667v213.333c0 23.467-19.2 42.667-42.667 42.667s-42.667-19.2-42.667-42.667v-768c0-23.467 19.2-42.667 42.667-42.667s42.667 19.2 42.667 42.667v42.667h682.667v-42.667c0-23.467 19.2-42.667 42.667-42.667s42.667 19.2 42.667 42.667v597.333c0 23.467-19.2 42.667-42.667 42.667zM341.333 512v-42.667h-170.667v42.667h170.667zM170.667 170.667v42.667h170.667v-42.667h-170.667zM426.667 170.667v42.667c0 46.933-38.4 85.333-85.333 85.333h-170.667v85.333h682.667v-213.333h-426.667z" />
<glyph unicode="&#xe90b;" glyph-name="backward_more" d="M913.357 849.642c15.394-6.855 25.31-22.127 25.31-38.976v-767.999c0-16.849-9.916-32.124-25.31-38.976-15.39-6.857-33.374-4.011-45.901 7.262l-426.667 384c-8.99 8.090-14.123 19.618-14.123 31.714s5.133 23.62 14.123 31.714l426.667 383.999c12.527 11.272 30.511 14.117 45.901 7.262zM533.111 426.667l320.222-288.201v576.398l-320.222-288.197zM572.023 849.642c15.394-6.855 25.31-22.127 25.31-38.976v-128c0-23.564-19.102-42.667-42.667-42.667s-42.667 19.103-42.667 42.667v32.198l-320.22-288.197 320.22-288.201v32.201c0 23.565 19.102 42.667 42.667 42.667s42.667-19.102 42.667-42.667v-128c0-16.849-9.916-32.124-25.31-38.976-15.39-6.857-33.374-4.011-45.901 7.262l-426.665 384c-8.991 8.090-14.124 19.618-14.124 31.714s5.134 23.62 14.124 31.714l426.665 383.999c12.527 11.272 30.511 14.117 45.901 7.262z" />
<glyph unicode="&#xe90c;" glyph-name="backward" d="M742.69 849.642c15.394-6.855 25.31-22.127 25.31-38.976v-767.999c0-16.849-9.916-32.124-25.31-38.976-15.39-6.857-33.374-4.011-45.901 7.262l-426.665 384c-8.991 8.090-14.124 19.618-14.124 31.714s5.134 23.62 14.124 31.714l426.665 383.999c12.527 11.272 30.511 14.117 45.901 7.262zM362.447 426.667l320.22-288.201v576.398l-320.22-288.197z" />
<glyph unicode="&#xe90d;" glyph-name="bills_invoices" d="M854.613 654.080l-179.627 165.547c-23.467 21.76-54.613 33.707-86.613 33.707h-332.373c-70.827 0-128-57.173-128-128v-597.333c0-70.827 57.173-128 128-128h512c70.827 0 128 57.173 128 128v431.787c0 35.84-14.933 69.973-41.387 94.293zM810.667 128c0-23.467-19.2-42.667-42.667-42.667h-512c-23.467 0-42.667 19.2-42.667 42.667v597.333c0 23.467 19.2 42.667 42.667 42.667h332.373c10.667 0 20.907-3.84 29.013-11.093l179.627-165.547c8.533-8.107 13.653-19.627 13.653-31.573v-431.787zM512 469.334c-30.72 0-42.667 19.627-42.667 29.44s11.947 29.44 42.667 29.44c0.853 0 1.28 0 1.707 0 6.827 0 14.080-1.28 20.907-5.12 6.827-3.413 13.227-9.387 18.773-17.067 13.227-19.627 39.68-24.747 59.307-11.52s24.747 39.68 11.52 59.307c-12.8 18.773-29.44 34.133-49.493 44.8-6.4 3.413-13.227 5.12-20.053 7.68v12.373c0 23.467-19.2 42.667-42.667 42.667s-42.667-19.2-42.667-42.667v-12.373c-46.933-14.933-85.333-53.333-85.333-107.52 0-69.973 64.427-114.773 128-114.773 30.72 0 42.667-19.627 42.667-29.44 0-9.387-11.947-29.44-42.667-29.44-0.853 0-1.28 0-2.133 0-6.827 0-14.080 1.28-20.907 5.12-6.827 3.413-13.227 9.387-18.773 17.067-13.227 19.627-39.68 24.747-59.307 11.52s-24.747-39.68-11.52-59.307c12.8-18.773 29.44-34.133 49.493-44.8 6.4-3.413 13.227-5.12 20.053-7.68v-12.373c0-23.467 19.2-42.667 42.667-42.667s42.667 19.2 42.667 42.667v12.373c46.933 14.933 85.333 53.76 85.333 107.52 0.427 69.973-64 114.773-127.573 114.773z" />
<glyph unicode="&#xe90e;" glyph-name="birthday" d="M896 512h-85.333v128c0 23.467-19.2 42.667-42.667 42.667s-42.667-19.2-42.667-42.667v-128h-170.667v128c0 23.467-19.2 42.667-42.667 42.667s-42.667-19.2-42.667-42.667v-128h-170.667v128c0 23.467-19.2 42.667-42.667 42.667s-42.667-19.2-42.667-42.667v-128h-85.333c-23.467 0-42.667-19.2-42.667-42.667v-426.667c0-23.467 19.2-42.667 42.667-42.667h768c23.467 0 42.667 19.2 42.667 42.667v426.667c0 23.467-19.2 42.667-42.667 42.667zM170.667 426.667h682.667v-85.333c0-20.053-5.547-39.253-15.787-54.187-9.813-14.507-23.040-24.32-36.693-28.587-13.227-4.267-27.733-3.413-40.96 2.987-13.227 5.973-25.6 17.92-34.133 34.133-7.68 14.933-22.613 23.893-39.253 23.467-16.213-0.427-31.147-10.24-37.973-25.173-5.547-12.373-13.653-22.187-22.613-28.587-8.533-6.4-17.92-9.387-27.307-9.387-8.533 0-17.92 2.987-26.027 8.96-8.533 6.4-16.213 15.787-20.907 27.733-6.827 15.787-22.187 26.453-39.253 26.453s-32.853-10.667-39.253-26.453c-5.12-11.947-12.373-21.333-20.907-27.733-8.96-5.973-17.92-8.96-26.88-8.96-9.387 0-19.2 2.987-27.733 9.387-8.96 6.4-17.067 16.213-22.613 28.587-6.827 14.933-21.333 24.747-37.973 25.173-16.213 0.427-31.573-8.533-39.253-23.467-8.533-16.213-20.907-28.16-34.133-34.133-13.227-6.4-27.307-7.253-40.96-2.987s-26.88 14.080-36.693 28.587c-9.813 14.933-15.36 34.133-15.36 54.187v85.333zM170.667 85.334v103.68c8.533-4.693 17.493-8.96 26.88-11.947 33.707-10.667 69.973-8.107 102.4 6.827 12.8 5.973 24.32 13.653 34.987 22.613 4.267-3.84 8.96-7.68 14.080-11.093 22.187-15.787 48.64-24.747 76.373-24.747h0.853c27.307 0.427 53.76 9.387 75.947 25.6 3.413 2.56 6.827 5.12 10.24 8.107 3.413-2.987 6.827-5.547 10.24-8.107 22.187-16.213 48.213-25.173 75.947-25.6h0.853c27.733 0 54.187 8.96 76.8 24.747 4.693 3.413 9.387 7.253 14.080 11.093 10.667-8.96 22.187-16.64 34.987-22.613 32.427-14.933 68.267-17.493 102.4-6.827 9.387 2.987 18.347 7.253 26.88 11.947v-103.68h-683.947zM512 746.667c23.467 0 42.667 19.2 42.667 42.667v21.333c0 23.467-19.2 42.667-42.667 42.667s-42.667-19.2-42.667-42.667v-21.333c0-23.467 19.2-42.667 42.667-42.667zM768 746.667c23.467 0 42.667 19.2 42.667 42.667v21.333c0 23.467-19.2 42.667-42.667 42.667s-42.667-19.2-42.667-42.667v-21.333c0-23.467 19.2-42.667 42.667-42.667zM256 746.667c23.467 0 42.667 19.2 42.667 42.667v21.333c0 23.467-19.2 42.667-42.667 42.667s-42.667-19.2-42.667-42.667v-21.333c0-23.467 19.2-42.667 42.667-42.667z" />
<glyph unicode="&#xe90f;" glyph-name="blacklist" d="M813.653 728.32c-79.787 80.213-188.587 125.013-301.653 125.013s-221.867-44.8-301.653-125.013c-80.213-79.787-125.013-188.587-125.013-301.653s44.8-221.867 125.013-301.653c79.787-80.213 188.587-125.013 301.653-125.013s221.867 44.8 301.653 125.013c80.213 79.787 125.013 188.587 125.013 301.653s-44.8 221.867-125.013 301.653zM753.493 668.16c64-64 99.84-151.040 99.84-241.493 0-75.947-25.6-149.76-72.107-209.067l-478.293 478.72c59.307 46.080 132.693 71.68 209.067 71.68 90.453 0 177.493-35.84 241.493-99.84zM270.507 185.174c-64 64-99.84 151.040-99.84 241.493 0 75.947 25.6 149.76 72.107 209.067l478.293-478.72c-59.307-46.080-132.693-71.68-209.067-71.68-90.453 0-177.493 35.84-241.493 99.84z" />
<glyph unicode="&#xe910;" glyph-name="calendar" d="M896 768h-162.133v42.667c0 23.467-19.2 42.667-42.667 42.667s-42.667-19.2-42.667-42.667v-42.667h-273.067v42.667c0 23.467-19.2 42.667-42.667 42.667s-42.667-19.2-42.667-42.667v-42.667h-162.133c-23.467 0-42.667-19.2-42.667-42.667v-682.667c0-23.467 19.2-42.667 42.667-42.667h768c23.467 0 42.667 19.2 42.667 42.667v682.667c0 23.467-19.2 42.667-42.667 42.667zM853.333 682.667v-85.333h-682.667v85.333h682.667zM170.667 85.334v426.667h682.667v-426.667h-682.667z" />
<glyph unicode="&#xe911;" glyph-name="cash_payment" d="M601.003 853.334c-186.972 0-338.514-151.467-338.514-337.92 0-186.88 151.542-338.347 338.088-338.347 186.974 0 338.091 151.467 338.091 338.347 0.427 186.453-151.117 337.92-337.664 337.92zM601.003 262.4c-139.588 0-252.711 113.493-252.711 253.013-0.427 139.52 113.123 252.587 252.711 252.587 139.593 0 252.715-113.067 252.715-252.587s-113.122-253.013-252.715-253.013zM683.392 527.36c-23.479 17.493-53.786 27.307-85.803 27.307-15.369 0-27.319 4.693-34.577 10.24-7.684 5.547-8.111 9.813-8.111 11.093s0.427 5.547 8.111 11.093c7.684 5.547 19.209 10.24 34.577 10.24 0.427 0 1.28 0 1.707 0 8.111 0.427 15.795-1.28 23.053-4.693s13.658-8.533 18.355-14.507c14.089-18.773 40.981-22.613 59.763-8.107 18.782 14.080 22.626 40.96 8.111 59.733-13.235 17.067-30.31 31.147-49.946 40.107-5.978 2.56-12.378 4.267-18.355 5.973v6.827c0 23.467-19.209 42.667-42.688 42.667s-42.688-19.2-42.688-42.667v-5.973c-15.795-4.693-30.737-11.52-43.115-21.333-23.906-17.493-42.261-45.227-42.261-79.36s18.355-61.867 41.835-79.36c23.906-17.493 54.212-27.307 86.229-27.307 15.369 0 27.319-4.693 34.577-10.24 7.684-5.547 8.111-9.813 8.111-11.093s-0.427-5.547-8.111-11.093c-7.258-5.547-19.209-10.24-34.577-10.24-0.427 0-1.28 0-1.707 0-8.111-0.427-15.795 1.28-23.053 4.693s-13.662 8.533-18.355 14.507c-14.089 18.773-40.981 22.613-59.763 8.107-18.782-14.080-22.626-40.96-8.111-59.733 13.231-17.067 30.306-31.147 49.946-40.107 5.973-2.56 12.378-4.267 18.355-5.973v-6.827c0-23.467 19.209-42.667 42.688-42.667s42.688 19.2 42.688 42.667v6.4c15.795 4.693 30.733 11.52 43.115 20.907 23.906 17.493 42.261 45.227 42.261 79.36s-18.355 61.867-42.261 79.36zM524.591 106.24c-30.733-13.227-64.883-20.907-101.169-20.907-139.59 0-252.713 113.067-252.713 252.587 0 39.68 8.964 77.227 25.186 110.507 10.245 20.907 1.708 46.507-19.636 56.747-21.344 10.667-46.957 1.707-57.202-19.627-21.344-44.373-33.723-94.72-33.723-147.627 0-186.453 151.542-337.92 338.089-337.92 47.81 0 93.916 10.24 135.319 28.16 21.773 9.387 31.59 34.56 22.199 56.32-9.391 21.333-34.577 31.147-56.35 21.76z" />
<glyph unicode="&#xe912;" glyph-name="cashier" d="M896 341.334h-50.347l-35.84 179.2c-3.84 19.627-21.333 34.133-41.813 34.133h-85.333v42.667h85.333c23.467 0 42.667 19.2 42.667 42.667v170.667c0 23.467-19.2 42.667-42.667 42.667h-256c-23.467 0-42.667-19.2-42.667-42.667v-170.667c0-23.467 19.2-42.667 42.667-42.667h85.333v-42.667h-341.333c-20.48 0-37.973-14.507-41.813-34.133l-35.84-179.2h-50.347c-23.467 0-42.667-19.2-42.667-42.667v-256c0-23.467 19.2-42.667 42.667-42.667h768c23.467 0 42.667 19.2 42.667 42.667v256c0 23.467-19.2 42.667-42.667 42.667zM554.667 768h170.667v-85.333h-170.667v85.333zM290.987 469.334h442.027l25.6-128h-493.227l25.6 128zM853.333 85.334h-682.667v170.667h682.667v-170.667zM597.333 213.334h-170.667c-23.467 0-42.667-19.2-42.667-42.667s19.2-42.667 42.667-42.667h170.667c23.467 0 42.667 19.2 42.667 42.667s-19.2 42.667-42.667 42.667z" />
<glyph unicode="&#xe913;" glyph-name="cashlist" d="M826.88 697.6c-17.493 17.493-40.96 27.733-66.133 27.733h-87.040c-7.253 29.013-22.187 55.893-43.093 77.653-31.147 32-73.813 50.347-118.613 50.347s-87.467-18.347-118.613-50.347c-20.907-21.76-35.84-48.64-43.093-77.653h-87.040c-25.173 0-48.64-10.24-66.133-27.733-17.067-17.92-26.453-41.813-26.453-66.133v-537.6c0-24.32 9.387-48.213 26.453-66.133 17.493-17.493 40.96-27.733 66.133-27.733h248.747c23.467 0 42.667 19.2 42.667 42.667s-19.2 42.667-42.667 42.667h-248.747c-1.28 0-3.413 0.427-4.693 2.133-1.707 1.28-2.56 3.84-2.56 6.4v537.6c0 2.56 0.853 5.12 2.56 6.4 1.28 1.707 2.987 2.133 4.693 2.133h124.587c23.467 0 42.667 19.2 42.667 42.667 0 23.040 8.96 44.8 24.32 60.587 15.36 16.213 35.84 24.747 57.173 24.747s41.813-8.533 57.6-24.747c15.36-15.787 24.32-37.547 24.32-60.587 0-23.467 19.2-42.667 42.667-42.667h124.587c1.28 0 3.413-0.427 4.693-2.133 1.28-1.28 2.133-3.84 2.133-6.4v-119.467c0-23.467 19.2-42.667 42.667-42.667s42.667 19.2 42.667 42.667v119.467c0 24.32-9.387 48.213-26.453 66.133zM811.093 228.694c-23.467 17.493-53.76 27.307-85.76 27.307-15.36 0-27.307 4.693-34.56 10.24-7.68 5.547-8.107 9.813-8.107 11.093s0.427 5.547 8.107 11.093c7.68 5.547 19.2 10.24 34.56 10.24 0.427 0 1.28 0 1.707 0 8.107 0.427 15.787-1.28 23.040-4.693s13.653-8.533 18.347-14.507c14.080-18.773 40.96-22.613 59.733-8.107 18.773 14.080 22.613 40.96 8.107 59.733-13.227 17.067-30.293 31.147-49.92 40.107-5.973 2.56-12.373 4.267-18.347 5.973v6.827c0 23.467-19.2 42.667-42.667 42.667s-42.667-19.2-42.667-42.667v-5.973c-15.787-4.693-30.72-11.52-43.093-21.333-23.893-17.493-42.24-45.227-42.24-79.36s18.347-61.867 41.813-79.36c23.893-17.493 54.187-27.307 86.187-27.307 15.36 0 27.307-4.693 34.56-10.24 7.68-5.547 8.107-9.813 8.107-11.093s-0.427-5.547-8.107-11.093c-7.253-5.547-19.2-10.24-34.56-10.24-0.427 0-1.28 0-1.707 0-8.107-0.427-15.787 1.28-23.040 4.693s-13.653 8.533-18.347 14.507c-14.080 18.773-40.96 22.613-59.733 8.107-18.773-14.080-22.613-40.96-8.107-59.733 13.227-17.067 30.293-31.147 49.92-40.107 5.973-2.56 12.373-4.267 18.347-5.973v-6.827c0-23.467 19.2-42.667 42.667-42.667s42.667 19.2 42.667 42.667v6.4c15.787 4.693 30.72 11.52 43.093 20.907 23.893 17.493 42.24 45.227 42.24 79.36s-18.347 61.867-42.24 79.36zM640 512c0 23.467-19.2 42.667-42.667 42.667h-213.333c-23.467 0-42.667-19.2-42.667-42.667s19.2-42.667 42.667-42.667h213.333c23.467 0 42.667 19.2 42.667 42.667zM469.333 405.334h-85.333c-23.467 0-42.667-19.2-42.667-42.667s19.2-42.667 42.667-42.667h85.333c23.467 0 42.667 19.2 42.667 42.667s-19.2 42.667-42.667 42.667zM469.333 256h-85.333c-23.467 0-42.667-19.2-42.667-42.667s19.2-42.667 42.667-42.667h85.333c23.467 0 42.667 19.2 42.667 42.667s-19.2 42.667-42.667 42.667z" />
<glyph unicode="&#xe914;" glyph-name="channel_manager" d="M597.338 170.667h-256.002c-23.467 0-42.667 19.2-42.667 42.667v238.507l55.040-55.467c16.64-16.64 43.52-16.64 60.16 0 16.642 16.64 16.642 43.947 0 60.587l-128 128c-16.64 16.64-43.52 16.64-60.16 0l-128-128c-16.64-16.64-16.64-43.947 0-60.587s43.52-16.64 60.16 0l55.467 55.467v-238.507c0-70.827 57.173-128 128-128h256.002c23.467 0 42.667 19.2 42.667 42.667s-19.2 42.667-42.667 42.667zM926.298 456.96c-16.64 16.64-43.52 16.64-60.16 0l-55.467-55.467v238.507c0 70.827-57.173 128-128 128h-256c-23.468 0-42.668-19.2-42.668-42.667s19.2-42.667 42.668-42.667h256c23.467 0 42.667-19.2 42.667-42.667v-238.507l-55.040 55.467c-16.64 16.64-43.52 16.64-60.16 0s-16.64-43.947 0-60.587l128-128c16.64-16.64 43.52-16.64 60.16 0l128 128c16.64 16.64 16.64 43.947 0 60.587z" />
<glyph unicode="&#xe915;" glyph-name="chargeable" d="M911.36 476.16c-6.827 7.253-15.36 12.8-23.893 17.493v20.48c0 38.827-14.933 76.373-42.24 104.107-20.48 20.907-46.507 34.987-75.093 40.533l-69.12 141.653c-5.547 11.093-12.8 20.907-22.187 29.44-9.387 8.107-20.053 14.507-32 18.347-11.947 4.267-24.32 5.973-36.693 4.693-12.373-0.853-24.747-4.267-35.413-9.813l-357.12-182.613c-34.133-2.987-66.133-17.493-90.027-42.24-27.307-27.733-42.24-65.28-42.24-104.107v-366.507c0-38.827 14.933-76.373 42.24-104.107 26.88-27.733 64-43.52 102.827-43.52h512c38.827 0 75.947 15.787 102.827 43.52s42.24 65.28 42.24 104.107v20.053c8.96 4.693 17.067 10.24 23.893 17.493 17.493 17.92 27.307 42.24 27.307 66.987v157.44c0 24.747-9.813 48.64-27.307 66.56zM674.133 242.347c-22.187 0-43.947 9.387-60.16 25.6-16.213 16.64-25.173 39.253-25.173 62.72 0 23.893 9.387 46.507 25.173 63.147 16.213 16.213 37.547 25.173 60.16 25.173h170.667c2.133 0 3.84-0.427 5.547-2.133 1.707-2.133 2.987-4.693 2.987-7.253v-157.44c0-2.987-1.28-5.547-2.987-7.253s-3.84-2.56-5.547-2.56h-170.667zM613.547 767.147c0.853 0.427 2.133 0.853 2.987 0.853s2.133 0 2.987-0.427c0.853-0.427 1.707-0.853 2.987-1.707 0.853-0.853 1.707-1.707 2.133-2.987l49.493-101.12h-266.667l206.080 105.387zM784.213 103.254c-11.093-11.52-26.453-17.92-41.813-17.92h-512c-15.36 0-30.72 6.4-41.813 17.92-11.52 11.52-17.92 27.307-17.92 44.373v366.507c0 17.067 6.4 32.853 17.92 44.373 11.093 11.52 26.453 17.92 41.813 17.92h512c15.36 0 30.72-6.4 41.813-17.92s17.92-27.307 17.92-44.373v-9.814h-128c-45.653 0-89.173-18.347-121.173-51.2-32-32.427-49.493-76.373-49.493-122.453 0-45.653 17.92-89.6 49.493-122.453 32-32.427 75.52-51.2 121.173-51.2h128v-9.387c0-17.067-6.4-32.853-17.92-44.373zM747.947 376.747c-8.96 6.4-20.053 9.813-31.147 9.813-14.933 0-29.013-5.973-39.68-16.64s-15.787-24.747-15.787-39.253c0-10.667 2.987-21.333 8.96-30.293 5.973-9.387 14.507-16.64 24.747-20.907s21.76-5.547 32.427-3.413c11.093 2.56 20.907 7.68 28.587 15.787 7.68 7.68 12.8 17.493 14.933 28.16s0.853 21.76-2.987 32c-3.84 9.813-11.093 18.773-20.053 24.747z" />
<glyph unicode="&#xe916;" glyph-name="checkbox_empty" d="M768 725.334c23.565 0 42.667-19.103 42.667-42.667v-512c0-23.565-19.102-42.667-42.667-42.667h-512c-23.564 0-42.667 19.102-42.667 42.667v512c0 23.564 19.103 42.667 42.667 42.667h512zM256 810.667c-70.692 0-128-57.308-128-128v-512c0-70.694 57.308-128 128-128h512c70.694 0 128 57.306 128 128v512c0 70.692-57.306 128-128 128h-512z" />
<glyph unicode="&#xe917;" glyph-name="checkbox_tick" d="M768 810.667h-512c-70.827 0-128-57.173-128-128v-512c0-70.827 57.173-128 128-128h512c70.827 0 128 57.173 128 128v512c0 70.827-57.173 128-128 128zM810.667 170.667c0-23.467-19.2-42.667-42.667-42.667h-512c-23.467 0-42.667 19.2-42.667 42.667v512c0 23.467 19.2 42.667 42.667 42.667h512c23.467 0 42.667-19.2 42.667-42.667v-512zM628.48 560.64l-183.467-220.16-52.053 52.48c-16.64 16.64-43.52 16.64-60.16 0s-16.64-43.947 0-60.587l85.333-85.333c8.533-8.533 20.053-12.8 32-12.373s23.040 5.973 30.72 15.36l213.333 256c14.933 17.92 12.8 44.8-5.547 60.16-17.92 14.933-44.8 12.373-60.16-5.547z" />
<glyph unicode="&#xe918;" glyph-name="checkout" d="M542.293 543.574c-25.6 19.627-56.32 33.707-88.747 42.667 8.96 5.547 17.493 11.52 24.747 19.2 28.16 26.88 44.373 64 44.373 103.253s-16.213 75.52-44.373 102.827c-28.16 26.88-65.707 41.813-104.96 41.813-38.827 0-76.8-14.933-104.96-41.813-28.16-27.307-44.373-64-44.373-103.253s16.213-75.947 44.373-103.253c7.68-7.253 16.213-13.653 24.747-19.2-32.427-8.533-63.147-22.613-88.747-42.24-46.507-34.987-76.373-86.187-76.373-142.507v-102.4c0-23.467 19.2-42.667 42.667-42.667h30.293l29.013-218.88c2.56-21.333 20.48-37.12 42.24-37.12h202.667c21.333 0 39.68 15.787 42.24 37.12l28.587 218.88h30.293c23.467 0 42.667 19.2 42.667 42.667v102.4c0 56.32-29.867 107.52-76.373 142.507zM327.253 750.080c11.947 11.093 28.587 17.92 46.080 17.92s34.133-6.827 46.080-17.92c11.52-11.52 17.92-26.453 17.92-41.813s-6.4-30.293-17.92-41.813c-11.947-11.093-28.587-17.92-46.080-17.92s-34.133 6.827-46.080 17.92c-11.52 11.52-17.92 26.453-17.92 41.813s6.4 30.293 17.92 41.813zM533.333 341.334h-24.747c-21.333 0-39.68-15.787-42.24-37.12l-29.013-218.88h-128l-29.013 218.88c-2.56 21.333-20.48 37.12-42.24 37.12h-24.747v59.733c0 25.173 13.227 52.48 42.24 74.667 29.867 22.613 72.107 36.267 117.76 36.267s87.893-13.653 117.76-36.267c29.013-22.187 42.24-49.493 42.24-74.667v-59.733zM882.773 713.387l-128 122.88c-17.067 16.213-43.947 15.787-60.16-1.28s-15.787-43.947 1.28-60.16l96-92.16-96-92.16c-17.067-16.213-17.493-43.52-1.28-60.16 16.213-17.067 43.52-17.493 60.16-1.28l128 122.88c8.533 8.107 13.227 19.2 13.227 30.72s-4.693 22.613-13.227 30.72z" />
<glyph unicode="&#xe919;" glyph-name="chevron_down" d="M225.83 584.837c16.663 16.662 43.677 16.662 60.34 0l225.83-225.831 225.83 225.831c16.661 16.662 43.678 16.662 60.339 0s16.661-43.677 0-60.34l-256-256c-16.661-16.661-43.678-16.661-60.339 0l-256 256c-16.662 16.663-16.662 43.677 0 60.34z" />
<glyph unicode="&#xe91a;" glyph-name="chevron_left" d="M670.17 712.837c16.661-16.663 16.661-43.677 0-60.34l-225.83-225.83 225.83-225.83c16.661-16.661 16.661-43.678 0-60.339s-43.678-16.661-60.339 0l-256 256c-16.662 16.661-16.662 43.678 0 60.339l256 256c16.661 16.662 43.678 16.662 60.339 0z" />
<glyph unicode="&#xe91b;" glyph-name="chevron_right" d="M353.83 140.497c-16.662 16.661-16.662 43.678 0 60.339l225.831 225.83-225.831 225.83c-16.662 16.663-16.662 43.677 0 60.34s43.677 16.662 60.34 0l256-256c16.661-16.661 16.661-43.678 0-60.339l-256-256c-16.663-16.661-43.677-16.661-60.34 0z" />
<glyph unicode="&#xe91c;" glyph-name="chevron_up" d="M798.17 268.497c-16.661-16.661-43.678-16.661-60.339 0l-225.83 225.83-225.83-225.83c-16.663-16.661-43.677-16.661-60.34 0s-16.662 43.678 0 60.339l256 256c16.661 16.662 43.678 16.662 60.339 0l256-256c16.661-16.661 16.661-43.678 0-60.339z" />
<glyph unicode="&#xe91d;" glyph-name="clear" d="M937.434 279.783c-3.418 19.614-14.089 37.099-29.453 49.041-1.28 0.853-2.138 1.702-3.418 2.556l-155.797 101.491c-32.87 25.587-74.274 38.379-116.105 36.25-8.111-0.427-16.222-2.133-24.329-3.413-2.138 5.116-5.124 10.236-9.391 14.071l-49.941 49.467c-18.782 18.763-43.968 28.998-70.003 28.998-11.529 0-22.199-2.132-32.87-5.97l-288.122 288.694c-16.647 16.631-43.539 16.631-60.186 0s-16.647-43.496 0-60.127l288.55-288.693c-3.842-10.662-5.976-21.325-5.976-32.836 0-26.441 10.244-51.601 29.026-70.362 0 0 0 0 0.427-0.427l49.516-49.041c4.267-4.262 8.964-7.249 14.084-9.382-1.707-8.098-2.987-16.201-3.413-24.303-2.138-41.792 10.671-82.731 36.279-115.989l101.594-155.648c0.853-1.28 1.707-2.133 2.56-3.413 12.378-15.351 29.879-26.014 49.515-29.423 19.635-3.413 39.697 0.427 56.768 10.662 3.418 2.129 6.404 4.262 8.964 7.249l94.763 100.211 100.309 94.665c2.987 2.56 5.124 5.547 7.258 8.956 8.964 17.058 12.804 37.103 9.391 56.717zM469.18 449.076c-2.564 2.56-3.844 5.969-3.844 9.809 0 3.836 1.28 7.249 3.844 9.809 2.56 2.556 5.973 4.262 9.818 4.262 3.84 0 7.253-1.28 9.818-4.262 0 0 0 0 0.427-0.427l41.404-40.939c-3.418-2.987-7.258-5.542-10.671-8.956-3.418-3.409-5.978-7.249-8.964-10.662l-41.83 41.365zM759.863 180.852c-0.427-0.427-1.28-1.28-1.707-1.707l-84.945-89.553-97.323 149.252c-0.853 1.28-1.707 2.133-2.56 3.413-13.658 17.058-20.489 37.952-19.209 59.699s10.244 41.792 25.613 57.143c15.364 15.351 35.853 24.307 57.195 25.583 21.773 1.28 42.688-5.542 59.759-19.187 1.284-0.853 2.138-1.707 3.418-2.56l148.971-97.225-89.212-84.86z" />
<glyph unicode="&#xe91e;" glyph-name="collapse" d="M798.17 268.497c-16.661-16.661-43.678-16.661-60.339 0l-225.83 225.83-225.83-225.83c-16.663-16.661-43.677-16.661-60.34 0s-16.662 43.678 0 60.339l256 256c16.661 16.662 43.678 16.662 60.339 0l256-256c16.661-16.661 16.661-43.678 0-60.339z" />
<glyph unicode="&#xe91f;" glyph-name="companies" d="M888.747 434.347l-384 174.507c-11.947 5.12-23.893 7.253-35.413 7.253v151.893c0 46.933-37.973 85.333-85.333 85.333h-213.333c-46.933 0-85.333-38.4-85.333-85.333v-682.667c0-46.933 38.4-85.333 85.333-85.333h682.667c47.36 0 85.333 38.4 85.333 85.333v271.36c0 33.28-19.627 63.573-49.92 77.653zM170.667 768h213.333v-682.667h-213.333v682.667zM853.333 85.334h-384v445.867l384-174.507v-271.36zM554.667 213.334h42.667c23.467 0 42.667 19.2 42.667 42.667s-19.2 42.667-42.667 42.667h-42.667c-23.467 0-42.667-19.2-42.667-42.667s19.2-42.667 42.667-42.667zM298.667 469.334h-42.667c-23.467 0-42.667-19.2-42.667-42.667s19.2-42.667 42.667-42.667h42.667c23.467 0 42.667 19.2 42.667 42.667s-19.2 42.667-42.667 42.667zM298.667 640h-42.667c-23.467 0-42.667-19.2-42.667-42.667s19.2-42.667 42.667-42.667h42.667c23.467 0 42.667 19.2 42.667 42.667s-19.2 42.667-42.667 42.667zM725.333 213.334h42.667c23.467 0 42.667 19.2 42.667 42.667s-19.2 42.667-42.667 42.667h-42.667c-23.467 0-42.667-19.2-42.667-42.667s19.2-42.667 42.667-42.667zM298.667 298.667h-42.667c-23.467 0-42.667-19.2-42.667-42.667s19.2-42.667 42.667-42.667h42.667c23.467 0 42.667 19.2 42.667 42.667s-19.2 42.667-42.667 42.667z" />
<glyph unicode="&#xe920;" glyph-name="fiscal_report" d="M85.333 725.334c0 70.692 57.308 128 128 128h597.333c70.694 0 128-57.308 128-128v-597.333c0-70.694-57.306-128-128-128h-597.333c-70.692 0-128 57.306-128 128v597.333zM213.333 768c-23.564 0-42.667-19.103-42.667-42.667v-597.333c0-23.565 19.103-42.667 42.667-42.667h597.333c23.565 0 42.667 19.102 42.667 42.667v597.333c0 23.564-19.102 42.667-42.667 42.667h-597.333zM256 640c0 23.564 19.103 42.667 42.667 42.667h426.667c23.565 0 42.667-19.103 42.667-42.667s-19.102-42.667-42.667-42.667h-426.667c-23.564 0-42.667 19.103-42.667 42.667zM256 469.334c0 23.565 19.103 42.667 42.667 42.667h426.667c23.565 0 42.667-19.102 42.667-42.667s-19.102-42.667-42.667-42.667h-426.667c-23.564 0-42.667 19.102-42.667 42.667zM353.83 328.837c14.382 14.383 36.915 16.614 53.837 5.333l104.333-69.555 104.333 69.555c16.922 11.281 39.454 9.050 53.837-5.333l85.333-85.333c16.661-16.661 16.661-43.678 0-60.339s-43.678-16.661-60.339 0l-60.599 60.599-98.897-65.933c-14.332-9.553-33.003-9.553-47.334 0l-98.896 65.933-60.6-60.599c-16.663-16.661-43.677-16.661-60.34 0s-16.662 43.678 0 60.339l85.333 85.333z" />
<glyph unicode="&#xe921;" glyph-name="complaint" d="M704.009 393.387c-23.467-0.853-41.813-20.907-40.96-44.373 1.28-27.307-8.96-54.613-29.013-75.093-20.053-20.907-47.787-33.28-77.653-34.56-23.467-0.853-41.813-20.907-40.96-44.373s20.907-41.813 44.373-40.96c51.627 2.133 100.267 23.893 136.107 60.587 35.413 37.12 54.613 86.613 52.48 137.387-0.853 23.893-20.907 42.24-44.373 41.387zM765.449 689.067c-76.8 86.187-182.187 151.040-291.413 163.84-11.093 1.28-22.187-0.427-32-5.547-10.24-5.12-18.349-13.227-23.895-23.467-5.547-9.813-7.68-21.76-5.973-33.28s6.827-22.187 14.509-30.293c96.853-104.107 112.213-181.333 105.387-232.107-5.973-44.373-29.867-77.227-49.067-96.853-11.52 11.52-20.48 24.747-26.027 39.68-7.68 18.773-10.24 38.827-7.253 58.88 0 0.427 0 1.28 0.427 1.707 0.853 9.813-0.853 19.627-4.693 28.587-4.693 8.533-11.093 16.213-18.773 21.76-7.682 5.547-16.642 8.96-26.029 9.813-8.96 1.28-18.347 0-26.88-3.413-60.16-21.76-111.787-61.44-148.48-113.067-36.267-52.053-55.467-113.493-54.613-176.213 0-87.040 48.213-162.56 114.773-214.613 66.987-52.48 156.162-84.48 247.895-84.48 118.613 0 210.347 45.653 272.213 117.333 61.013 70.827 90.453 164.693 90.453 258.56 0 114.347-53.76 226.987-130.56 313.173zM741.129 173.227c-44.8-52.053-113.067-87.893-207.787-87.893-72.533 0-143.362 25.6-195.415 66.133s-81.92 93.44-81.92 148.053c0 0.427 0 0.427 0 0.853-0.853 44.8 12.8 88.747 39.253 126.293 17.92 25.173 41.813 46.933 69.547 63.573 2.133-17.493 6.4-34.56 12.8-50.773 12.8-32.427 34.133-61.013 61.015-83.2 12.8-10.667 29.013-15.787 45.653-15.787 16.64 0.427 32.427 6.4 44.8 17.493 27.307 23.893 75.947 77.653 87.040 159.147 8.533 65.28-7.68 142.080-67.84 228.267 55.467-23.893 108.8-63.147 153.173-112.64 66.982-74.667 108.8-167.68 108.8-256 0.427-77.653-23.467-150.613-69.12-203.52z" />
<glyph unicode="&#xe922;" glyph-name="credit_card_report" d="M682.667 597.334h-512c-46.933 0-85.333-38.4-85.333-85.333v-384c0-46.933 38.4-85.333 85.333-85.333h512c47.36 0 85.333 38.4 85.333 85.333v384c0 46.933-37.973 85.333-85.333 85.333zM682.667 512v-85.333h-512v85.333h512zM170.667 128v213.333h512v-213.333h-512zM768 768h-469.333c-23.467 0-42.667-19.2-42.667-42.667s19.2-42.667 42.667-42.667h469.333c47.36 0 85.333-38.4 85.333-85.333v-341.333c0-23.467 19.2-42.667 42.667-42.667s42.667 19.2 42.667 42.667v341.333c0 94.293-76.373 170.667-170.667 170.667z" />
<glyph unicode="&#xe923;" glyph-name="cross_close" d="M225.83 712.837c16.663 16.662 43.677 16.662 60.34 0l225.83-225.831 225.83 225.831c16.661 16.662 43.678 16.662 60.339 0s16.661-43.677 0-60.34l-225.83-225.83 225.83-225.83c16.661-16.661 16.661-43.678 0-60.339s-43.678-16.661-60.339 0l-225.83 225.83-225.83-225.83c-16.663-16.661-43.677-16.661-60.34 0s-16.662 43.678 0 60.339l225.831 225.83-225.831 225.83c-16.662 16.663-16.662 43.677 0 60.34z" />
<glyph unicode="&#xe924;" glyph-name="custom_link_item" d="M810.667 853.334h-597.333c-70.827 0-128-57.173-128-128v-597.333c0-70.827 57.173-128 128-128h597.333c70.827 0 128 57.173 128 128v597.333c0 70.827-57.173 128-128 128zM853.333 128c0-23.467-19.2-42.667-42.667-42.667h-597.333c-23.467 0-42.667 19.2-42.667 42.667v597.333c0 23.467 19.2 42.667 42.667 42.667h597.333c23.467 0 42.667-19.2 42.667-42.667v-597.333zM497.067 321.28l-75.52-75.52c-25.173-25.173-65.707-25.173-90.453 0-25.173 25.173-25.173 65.28 0 90.453l75.52 75.52c16.64 16.64 16.64 43.52 0 60.16s-43.52 16.64-60.16 0l-75.52-75.52c-58.453-58.027-58.453-152.747 0-210.773 58.453-58.453 152.747-58.453 211.2 0l75.52 75.093c16.64 16.64 16.64 43.947 0 60.587-17.067 16.64-43.947 16.64-60.587 0zM542.293 668.16l-75.52-75.52c-16.64-16.64-16.64-43.52 0-60.16s43.52-16.64 60.16 0l75.52 75.093c25.173 25.173 65.707 25.173 90.453 0 24.747-24.747 24.747-65.28 0-90.453l-75.52-75.093c-16.64-16.64-16.64-43.947 0-60.587s43.52-16.64 60.16 0l75.52 75.52c58.453 58.453 58.453 152.747 0 211.2-58.027 58.453-152.747 58.453-210.773 0zM602.453 517.12c-16.64 16.64-43.52 16.64-60.16 0l-120.747-120.747c-16.64-16.64-16.64-43.52 0-60.16s43.52-16.64 60.16 0l120.747 120.747c16.64 16.64 16.64 43.52 0 60.16z" />
<glyph unicode="&#xe925;" glyph-name="custom_link" d="M302.507 217.174c16.64-16.64 43.52-16.64 60.16 0l358.4 358.4c16.64 16.64 16.64 43.52 0 60.16-16.64 17.067-43.52 17.067-60.16 0.427l-358.4-358.4c-16.64-16.64-16.64-43.947 0-60.587zM509.013 323.414c-23.467-1.28-41.387-21.333-40.107-44.8 0.853-15.36-1.28-31.147-6.827-45.653-5.547-14.080-14.080-27.307-24.747-38.4l-76.8-76.8c-21.333-20.907-49.493-32.427-78.933-32.427-14.507 0-29.013 2.987-42.24 8.533-13.653 5.547-25.6 13.653-35.84 23.893-10.667 10.24-18.773 22.613-24.32 35.84-5.547 13.653-8.533 28.16-8.533 42.667 0 29.44 11.52 57.6 32.427 78.507l76.8 76.373c11.093 11.093 24.32 19.627 38.4 25.173 14.507 5.547 29.867 7.68 45.653 6.827 23.467-1.28 43.52 16.64 44.8 40.107 1.707 23.893-16.213 43.947-39.68 45.227-27.733 1.707-55.040-2.56-80.64-12.373s-49.067-24.747-68.693-44.373l-76.8-76.8c-37.12-36.693-57.6-86.613-57.6-138.667 0-26.027 5.12-51.2 14.933-75.093s24.32-45.653 42.667-63.573c18.347-18.347 40.107-32.853 63.573-42.667s49.493-14.933 75.093-14.933c52.053 0 101.973 20.48 138.667 57.6l76.8 76.8c19.627 19.2 34.56 42.667 44.373 68.267 9.813 26.027 14.080 53.333 12.373 80.64-1.28 23.467-21.333 41.813-44.8 40.107zM881.067 795.734c-36.693 37.12-86.613 57.6-138.667 57.6s-101.973-20.48-138.667-57.6l-76.8-76.8c-19.627-19.2-34.56-42.667-44.373-68.267-9.813-26.027-14.080-53.333-12.373-80.64 1.28-23.893 21.76-41.813 45.227-40.107 23.467 1.28 41.387 21.333 40.107 44.8-0.853 15.36 1.28 31.147 6.827 45.653s14.080 27.307 24.747 38.4l76.8 76.8c20.907 20.907 49.067 32.427 78.507 32.427s57.6-11.52 78.507-32.427c20.907-20.907 32.427-49.067 32.427-78.507s-11.52-57.6-32.427-78.507l-76.8-76.373c-11.093-11.093-24.32-19.627-38.827-25.173-14.080-5.547-29.867-7.68-45.227-6.827-23.467 1.28-43.52-16.64-44.8-40.107-1.28-23.893 16.64-43.947 40.107-45.227 27.307-1.707 55.040 2.56 80.64 12.373s49.067 24.747 68.693 44.373l76.8 76.8c36.693 36.693 57.173 86.613 57.173 138.667s-20.48 101.973-57.6 138.667z" />
<glyph unicode="&#xe926;" glyph-name="customer_profiles" d="M805.188 406.187c29.85 26.88 49.468 65.707 49.468 109.227 0 82.347-68.233 148.053-150.114 148.053-81.877 0-150.11-65.707-150.11-148.053 0-43.947 19.191-82.347 49.468-109.653-14.071-5.973-26.867-13.227-38.805-21.76-6.822-5.12-11.089-11.947-14.076-19.2-24.734 23.467-53.73 42.24-85.717 55.467 41.37 30.72 68.233 78.933 68.233 134.4 0 95.147-78.464 170.667-173.138 170.667-95.099 0-173.567-75.52-173.567-170.667 0-55.467 26.867-103.68 67.806-134.4-98.937-40.533-169.302-136.533-169.302-249.6 0-23.467 19.191-42.667 42.645-42.667s42.645 19.2 42.645 42.667c0 101.12 84.012 184.747 189.772 184.747s189.774-83.627 189.774-184.747c0-23.467 19.187-42.667 42.645-42.667 23.454 0 42.645 19.2 42.645 42.667 0 50.347-14.076 96.853-38.383 137.387 6.396 0.853 12.796 2.987 18.765 6.827 24.734 17.92 55.437 28.587 88.7 28.587 83.162 0 148.834-65.28 148.834-144.64 0-23.467 19.191-42.667 42.645-42.667s42.645 19.2 42.645 42.667c-0.427 92.16-55.014 170.24-133.478 207.36zM360.396 640c49.042 0 87.847-38.827 87.847-85.333s-38.805-85.333-87.847-85.333c-49.042 0-88.276 38.827-88.276 85.333s38.807 85.333 88.276 85.333zM704.115 578.134c36.676 0 64.823-29.013 64.823-62.72 0-34.133-28.147-63.147-64.823-63.147-36.672 0-64.819 29.013-64.819 63.147 0 33.707 28.147 62.72 64.819 62.72z" />
<glyph unicode="&#xe927;" glyph-name="delete" d="M423.253 533.334c-23.467 0-42.667-19.2-42.667-42.667v-256c0-23.467 19.2-42.667 42.667-42.667s42.667 19.2 42.667 42.667v256c0 23.467-18.773 42.667-42.667 42.667zM600.747 533.334c-23.467 0-42.667-19.2-42.667-42.667v-256c0-23.467 19.2-42.667 42.667-42.667s42.667 19.2 42.667 42.667v256c0 23.467-19.2 42.667-42.667 42.667zM896 725.334h-193.707v21.333c0 27.307-9.813 54.187-28.587 74.24-18.773 20.48-44.8 32.427-72.96 32.427h-177.493c-28.16 0-54.187-11.947-72.96-32.427-18.773-20.053-28.587-46.933-28.587-74.24v-21.333h-193.707c-23.467 0-42.667-19.2-42.667-42.667s19.2-42.667 42.667-42.667h75.52v-533.333c0-27.307 9.813-54.187 28.587-74.24 18.773-20.48 44.8-32.427 72.96-32.427h413.44c28.16 0 54.187 11.947 72.96 32.427 18.773 20.053 28.587 46.933 28.587 74.24v533.333h75.947c23.467 0 42.667 19.2 42.667 42.667s-19.2 42.667-42.667 42.667zM407.040 746.667c0 6.827 2.56 12.373 5.973 16.213s7.253 5.12 10.24 5.12h177.067c3.413 0 6.827-1.28 10.24-5.12s5.973-9.387 5.973-16.213v-21.333h-209.493v21.333zM735.147 106.667c0-6.827-2.56-12.373-5.973-16.213s-7.253-5.12-10.24-5.12h-413.867c-2.987 0-6.827 1.28-10.24 5.12s-5.973 9.387-5.973 16.213v533.333h446.293v-533.333z" />
<glyph unicode="&#xe928;" glyph-name="done_circle" d="M813.653 728.32c-79.787 80.213-188.587 125.013-301.653 125.013s-221.867-44.8-301.653-125.013c-80.213-79.787-125.013-188.587-125.013-301.653s44.8-221.867 125.013-301.653c79.787-80.213 188.587-125.013 301.653-125.013s221.867 44.8 301.653 125.013c80.213 79.787 125.013 188.587 125.013 301.653s-44.8 221.867-125.013 301.653zM753.493 185.174c-64-64-151.040-99.84-241.493-99.84s-177.493 35.84-241.493 99.84c-64 64-99.84 151.040-99.84 241.493s35.84 177.493 99.84 241.493c64 64 151.040 99.84 241.493 99.84s177.493-35.84 241.493-99.84c64-64 99.84-151.040 99.84-241.493s-35.84-177.493-99.84-241.493zM673.707 584.96l-225.707-226.133-97.707 98.133c-16.64 16.64-43.52 16.64-60.16 0s-16.64-43.947 0-60.587l128-128c16.64-16.64 43.52-16.64 60.16 0l256 256c16.64 16.64 16.64 43.947 0 60.587s-43.947 16.64-60.587 0z" />
<glyph unicode="&#xe929;" glyph-name="device_command" d="M896 341.334h-85.333v21.333c0 24.747-9.813 48.64-27.307 66.56-17.92 17.493-41.813 27.307-66.56 27.307h-162.133v55.467h85.333c23.467 0 42.667 19.2 42.667 42.667v256c0 23.467-19.2 42.667-42.667 42.667h-256c-23.467 0-42.667-19.2-42.667-42.667v-256c0-23.467 19.2-42.667 42.667-42.667h85.333v-55.467h-162.133c-24.747 0-48.64-9.813-66.56-27.307-17.493-17.92-27.307-41.813-27.307-66.56v-21.333h-85.333c-23.467 0-42.667-19.2-42.667-42.667v-256c0-23.467 19.2-42.667 42.667-42.667h256c23.467 0 42.667 19.2 42.667 42.667v256c0 23.467-19.2 42.667-42.667 42.667h-85.333v21.333c0 2.133 0.853 4.267 2.56 5.973s3.84 2.56 5.973 2.56h409.6c2.133 0 4.267-0.853 5.973-2.56s2.56-3.84 2.56-5.973v-21.333h-85.333c-23.467 0-42.667-19.2-42.667-42.667v-256c0-23.467 19.2-42.667 42.667-42.667h256c23.467 0 42.667 19.2 42.667 42.667v256c0 23.467-19.2 42.667-42.667 42.667zM426.667 768h170.667v-170.667h-170.667v170.667zM341.333 85.334h-170.667v170.667h170.667v-170.667zM853.333 85.334h-170.667v170.667h170.667v-170.667z" />
<glyph unicode="&#xe92a;" glyph-name="disability" d="M810.662 85.334h-11.52v110.933c0 39.253-16.64 76.373-45.227 103.253-28.587 27.307-66.987 41.813-106.24 41.813h-162.987c-3.84 0-7.253 1.28-8.96 3.413-2.133 1.707-2.56 3.84-2.56 5.12v59.733h174.507c23.467 0 42.667 19.2 42.667 42.667s-19.2 42.667-42.667 42.667h-174.507v74.667c23.467 6.827 45.653 17.92 63.573 35.413 28.587 26.88 45.227 64 45.227 103.253s-16.64 76.373-45.227 103.253c-28.587 27.307-66.987 41.813-106.24 41.813s-77.654-14.507-105.814-41.813c-29.013-26.88-45.227-64-45.227-103.253s16.64-76.373 45.227-103.253c17.92-17.067 40.107-28.587 63.573-35.413v-78.507c-36.267-5.547-70.4-17.92-101.12-37.12-42.667-26.88-76.373-65.28-96.427-110.933s-25.173-96-14.933-144.213c10.24-48.64 35.413-92.587 72.107-127.147s82.773-57.6 132.693-66.987c49.494-9.387 101.548-4.693 148.481 13.653 47.36 18.773 87.893 49.92 116.907 90.88 27.733 38.827 42.667 84.907 43.947 132.693 1.707-1.28 3.84-2.56 5.12-4.267 11.947-11.52 18.347-26.453 18.347-41.387v-153.6c0-23.467 19.2-42.667 42.667-42.667h54.613c23.467 0 42.667 19.2 42.667 42.667s-19.2 42.667-42.667 42.667zM364.795 708.267c0 14.933 6.4 29.867 18.347 41.387s29.013 18.347 47.361 18.347c18.347 0 35.413-6.827 47.36-18.347 12.373-11.52 18.773-26.453 18.773-41.387s-6.4-29.867-18.347-41.387c-12.373-11.52-29.44-18.347-47.787-18.347s-35.414 6.827-47.361 18.347c-12.373 11.52-18.347 26.453-18.347 41.387zM576.422 158.294c-18.773-26.453-46.080-47.787-78.080-60.16-32-12.8-67.84-16.213-101.974-9.387-34.56 6.4-65.707 22.187-90.027 44.8-24.32 23.040-40.533 51.627-46.933 82.773-6.827 31.147-3.413 63.147 9.387 92.16 12.8 29.44 34.987 55.040 63.573 72.96 16.64 10.667 35.413 18.347 55.040 22.613v-54.187c0-25.6 11.093-49.92 29.44-67.413 18.348-17.067 42.668-26.453 67.841-26.453h120.32v-8.533c0-31.573-9.813-62.293-28.587-89.173z" />
<glyph unicode="&#xe92b;" glyph-name="done" d="M926.17 755.504c16.661-16.663 16.661-43.677 0-60.34l-554.666-554.666c-16.663-16.661-43.677-16.661-60.34 0l-213.333 213.333c-16.662 16.661-16.662 43.678 0 60.339s43.677 16.661 60.34 0l183.163-183.164 524.497 524.497c16.661 16.662 43.678 16.662 60.339 0z" />
<glyph unicode="&#xe92c;" glyph-name="download" d="M479.147 228.694c8.107-9.813 20.053-15.36 32.853-15.36s24.747 5.547 32.853 15.36l213.333 256c10.667 12.8 12.8 30.293 5.973 45.227-7.253 15.36-22.187 24.747-38.827 24.747h-85.333v256c0 23.467-19.2 42.667-42.667 42.667h-170.667c-23.467 0-42.667-19.2-42.667-42.667v-256h-85.333c-16.64 0-31.573-9.387-38.827-24.747-6.827-14.933-4.693-32.427 5.973-45.227l213.333-256zM426.667 469.334c23.467 0 42.667 19.2 42.667 42.667v256h85.333v-256c0-23.467 19.2-42.667 42.667-42.667h36.693l-122.027-146.773-122.027 146.773h36.693zM896 341.334c-23.467 0-42.667-19.2-42.667-42.667v-213.333h-682.667v213.333c0 23.467-19.2 42.667-42.667 42.667s-42.667-19.2-42.667-42.667v-213.333c0-46.933 38.4-85.333 85.333-85.333h682.667c47.36 0 85.333 38.4 85.333 85.333v213.333c0 23.467-19.2 42.667-42.667 42.667z" />
<glyph unicode="&#xe92d;" glyph-name="edit" d="M926.298 750.080c-8.533 20.48-20.48 38.827-36.267 54.613-15.36 15.787-34.133 27.733-54.613 36.267-20.48 8.107-42.24 12.373-64 12.373-22.187 0-43.52-4.693-64-13.227-20.053-8.533-38.4-20.907-53.76-36.693l-493.654-493.653c-3.413-3.413-5.973-7.253-8.107-11.52-0.427-0.427-0.853-0.853-0.853-1.707-0.427-0.853 0-1.28-0.427-2.133-0.427-1.28-1.28-2.56-1.707-3.84l-62.293-237.227c-3.84-14.507 0.427-30.293 11.093-40.96s26.453-14.933 40.96-11.093l236.8 62.293c1.707 0.427 2.987 1.28 4.693 1.707 0.427 0 0.853 0 1.707 0.427 0.427 0 0.427 0.427 0.853 0.853 4.693 2.133 8.533 4.693 12.373 8.107l493.654 493.653c15.787 15.36 28.16 33.707 36.693 53.76s13.227 41.813 13.227 64c0 21.76-4.267 43.947-12.373 64zM379.31 179.627l-27.733 64.427c-4.267 10.24-12.373 18.347-22.613 22.613l-64.427 27.307 333.654 333.653 114.773-114.773-333.654-333.227zM218.883 221.014l61.44-26.027 26.453-61.44-119.040-31.147 31.147 118.613zM846.938 655.36c-4.267-9.813-10.24-18.773-17.92-26.453l-55.467-55.467-114.773 114.773 55.893 55.893c7.68 7.68 16.64 13.653 26.453 17.92 9.387 3.84 20.053 5.973 30.72 5.973s21.333-2.133 31.147-5.973c9.813-4.267 18.773-10.24 26.453-17.493 7.68-7.68 13.653-16.64 17.493-26.453 4.267-10.24 6.4-20.907 6.4-31.573s-2.133-21.333-6.4-31.147z" />
<glyph unicode="&#xe92e;" glyph-name="employees" d="M378.018 142.093c-4.267 2.56-8.96 4.693-13.653 6.827 2.987 2.564 6.4 4.698 9.387 7.684 13.227 13.231 23.893 29.026 31.147 46.101 7.253 17.502 11.093 36.284 11.093 55.061 0 18.782-3.84 37.137-11.093 54.639s-17.92 33.293-31.147 46.528c-13.227 13.231-29.013 23.902-46.507 30.733-17.493 7.258-35.84 11.098-55.040 11.098-18.773 0-37.547-3.84-54.613-11.098-17.92-6.831-33.707-17.502-46.933-30.733-13.227-13.235-23.893-29.026-31.147-46.528s-11.093-35.857-11.093-54.639c0-18.778 3.84-37.559 11.093-55.061 7.253-17.075 17.92-32.87 31.147-46.101 2.987-2.987 5.973-5.12 9.387-7.684-4.693-2.133-9.387-4.267-13.653-6.827-32-19.209-58.027-46.528-75.947-79.394-11.093-20.493-3.413-46.528 17.493-57.626s46.507-3.418 57.6 17.502c10.24 19.204 25.6 34.999 44.373 46.097 18.773 11.524 40.107 17.075 61.867 17.075s43.52-5.551 62.293-17.075c18.773-11.098 34.133-26.893 44.373-46.097 11.093-20.919 37.12-28.599 57.6-17.502 20.907 11.098 28.587 37.133 17.493 57.626-17.493 32.866-43.947 60.186-75.52 79.394zM218.445 279.54c2.987 7.253 7.253 13.658 12.373 18.782 5.547 5.547 11.947 9.818 18.773 12.378 7.253 2.987 14.507 4.693 22.187 4.693s15.36-1.707 22.187-4.693c7.253-2.56 13.653-6.831 18.773-12.378 5.547-5.124 9.813-11.529 12.373-18.782 2.987-6.831 4.267-14.515 4.267-21.773 0-7.68-1.707-14.938-4.267-22.195-2.987-6.831-7.253-13.231-12.373-18.782-5.547-5.12-11.947-9.391-18.773-12.378s-14.507-4.267-22.187-4.267c-7.68 0-15.36 1.28-22.187 4.267-7.253 2.987-13.653 7.258-18.773 12.378-5.547 5.551-9.813 11.951-12.373 18.782-2.987 7.258-4.267 14.515-4.267 22.195-0.427 7.258 1.28 14.942 4.267 21.773zM933.538 62.699c-17.493 32.866-43.947 60.186-75.947 79.394-4.267 2.56-8.96 4.693-13.653 6.827 2.987 2.564 6.4 4.698 9.387 7.684 26.88 26.466 42.24 63.177 42.24 101.163 0 37.99-15.36 74.274-42.24 101.167-26.88 26.889-63.573 41.83-101.547 41.83s-74.24-14.942-101.547-41.83c-27.307-26.893-42.24-63.177-42.24-101.167 0-37.986 15.36-74.697 42.24-101.163 2.987-2.987 5.973-5.12 9.387-7.684-4.693-2.133-9.387-4.267-13.653-6.827-32-19.209-58.027-46.528-75.947-79.394-11.093-20.493-3.413-46.528 17.493-57.626s46.507-3.418 57.6 17.502c10.24 19.204 25.6 34.999 44.373 46.097 18.773 11.524 40.107 17.075 61.867 17.075s43.52-5.551 62.293-17.075c18.773-11.098 34.133-26.893 44.373-46.097 11.093-20.919 37.12-28.599 57.6-17.502 21.333 11.098 29.013 37.133 17.92 57.626zM710.818 298.321c11.093 10.671 25.6 17.071 40.96 17.071s30.293-6.4 41.387-17.071c11.093-10.675 17.067-25.613 17.067-40.555 0-15.364-5.973-29.879-17.067-40.977-11.093-10.671-25.6-16.644-41.387-16.644-15.36 0-30.293 5.973-40.96 16.644-11.093 11.098-17.067 25.613-17.067 40.977 0 14.942 5.973 29.879 17.067 40.555zM354.125 627.849v-104.152c0-18.78 7.68-37.135 20.907-50.37 13.227-13.231 31.573-20.915 50.347-20.915h172.8c18.773 0 37.12 7.684 50.347 20.915 13.653 13.235 20.907 31.59 20.907 50.37v104.152c16.64-6.403 35.84-2.135 47.787 11.952 14.933 18.354 12.373 45.246-5.547 60.186l-172.8 143.422c-15.787 13.232-38.827 13.232-54.613 0l-172.373-142.996c-17.92-14.94-20.48-41.831-5.547-60.186 11.947-14.513 31.147-18.354 47.787-12.378zM511.991 755.478l72.533-60.186v-157.081h-145.067v157.081l72.533 60.186z" />
<glyph unicode="&#xe92f;" glyph-name="expand" d="M271.744 546.475c-14.592 14.592-38.229 14.592-52.779 0s-14.592-38.229 0-52.779l244.053-244.011c13.013-13.013 30.635-20.309 49.024-20.309s36.053 7.296 49.024 20.309l244.053 244.011c14.592 14.592 14.592 38.229 0 52.779s-38.229 14.592-52.779 0l-240.256-240.213-240.256 240.213z" />
<glyph unicode="&#xe930;" glyph-name="export_schedule" d="M854.613 654.080l-179.627 165.547c-23.467 21.76-54.613 33.707-86.613 33.707h-332.373c-70.827 0-128-57.173-128-128v-597.333c0-70.827 57.173-128 128-128h512c70.827 0 128 57.173 128 128v431.787c0 35.84-14.933 69.973-41.387 94.293zM810.667 128c0-23.467-19.2-42.667-42.667-42.667h-512c-23.467 0-42.667 19.2-42.667 42.667v597.333c0 23.467 19.2 42.667 42.667 42.667h332.373c10.667 0 20.907-3.84 29.013-11.093l179.627-165.547c8.533-8.107 13.653-19.627 13.653-31.573v-431.787zM542.293 670.294c-16.64 16.64-43.52 16.64-60.16 0l-170.667-170.667c-16.64-16.64-16.64-43.947 0-60.587s43.52-16.64 60.16 0l97.707 98.133v-153.173c0-23.467 19.2-42.667 42.667-42.667s42.667 19.2 42.667 42.667v153.173l97.707-98.133c16.64-16.64 43.52-16.64 60.16 0s16.64 43.947 0 60.587l-170.24 170.667zM682.667 298.667h-170.667c-23.467 0-42.667-19.2-42.667-42.667s19.2-42.667 42.667-42.667h170.667c23.467 0 42.667 19.2 42.667 42.667s-19.2 42.667-42.667 42.667zM384 298.667h-42.667c-23.467 0-42.667-19.2-42.667-42.667s19.2-42.667 42.667-42.667h42.667c23.467 0 42.667 19.2 42.667 42.667s-19.2 42.667-42.667 42.667z" />
<glyph unicode="&#xe931;" glyph-name="exports" d="M853.333 341.329h-682.667c-46.933 0-85.333-38.4-85.333-85.333v-170.667c0-46.933 38.4-85.333 85.333-85.333h682.667c47.36 0 85.333 38.4 85.333 85.333v170.667c0 46.933-37.973 85.333-85.333 85.333zM853.333 85.329h-682.667v170.667h682.667v-170.667zM371.627 609.704l97.707 98.133v-238.508c0-23.467 19.2-42.667 42.667-42.667s42.667 19.2 42.667 42.667v238.508l97.707-98.133c16.64-16.64 43.52-16.64 60.16 0s16.64 43.947 0 60.587l-170.667 170.667c-16.64 16.64-43.52 16.64-60.16 0l-170.667-170.667c-16.64-16.64-16.64-43.947 0-60.587s43.947-16.64 60.587 0z" />
<glyph unicode="&#xe932;" glyph-name="external_payment" d="M597.333 640.051c-23.467 0-42.667-19.195-42.667-42.656v-5.972c-15.787-4.692-30.72-11.517-43.093-21.328-23.893-17.489-42.24-45.215-42.24-79.339 0-34.125 18.347-61.854 41.813-79.343 23.893-17.489 54.187-27.298 86.187-27.298 15.36 0 27.307-4.693 34.56-10.236 7.68-5.547 8.107-9.813 8.107-11.093s-0.427-5.547-8.107-11.089c-7.253-5.547-19.2-10.24-34.56-10.24-0.427 0-1.28 0-1.707 0-8.107-0.427-15.787 1.28-23.040 4.693s-13.653 8.533-18.347 14.502c-14.080 18.769-40.96 22.609-59.733 8.107-18.773-14.076-22.613-40.951-8.107-59.721 13.227-17.062 30.293-31.138 49.92-40.094 5.973-2.56 12.373-4.267 18.347-5.973v-6.827c0-23.458 19.2-42.654 42.667-42.654s42.667 19.196 42.667 42.654v6.4c15.787 4.693 30.72 11.516 43.093 20.902 23.893 17.489 42.24 45.214 42.24 79.339s-18.347 61.854-42.24 79.343c-23.467 17.485-53.76 27.298-85.76 27.298-15.36 0-27.307 4.693-34.56 10.236-7.68 5.547-8.107 9.813-8.107 11.093s0.427 5.542 8.107 11.089c7.253 5.547 19.2 10.237 34.56 10.237 0.427 0 1.28 0 1.707 0 8.107 0.427 15.787-1.277 23.040-4.691s13.653-8.533 18.347-14.502c14.080-18.769 40.96-22.609 59.733-8.107 18.773 14.076 22.613 40.95 8.107 59.718-13.227 17.062-30.293 31.139-49.92 40.097-5.973 2.559-12.373 4.265-18.347 5.972v6.825c0 23.461-19.2 42.656-42.667 42.656zM225.707 329.088c-16.64-16.636-16.64-43.934 0-60.57s43.52-16.636 60.16 0l128 127.966c8.533 8.107 12.8 18.769 12.8 30.285 0 11.52-4.267 22.182-12.373 30.289l-128 127.966c-16.64 16.636-43.52 16.636-60.16 0s-16.64-43.936 0-60.571l54.613-55.026h-152.747c-23.467 0-42.667-19.196-42.667-42.658 0-23.458 19.2-42.654 42.667-42.654h152.747l-55.040-55.027zM813.653 728.349c-166.827 166.785-436.907 166.785-603.307 0-16.64-16.636-16.64-43.509 0-60.145s43.52-16.636 60.16 0c133.12 133.087 349.44 133.087 482.56 0 133.12-133.513 133.12-349.352 0-482.864-133.12-133.090-349.44-133.090-482.56 0-16.64 16.636-43.52 16.636-60.16 0s-16.64-43.511 0-60.147c166.827-166.784 436.907-166.784 603.307 0 166.827 166.357 166.827 436.798 0 603.156z" />
<glyph unicode="&#xe933;" glyph-name="extrabed" d="M889.173 403.2c-31.573 30.72-74.24 47.787-118.187 47.787h-196.693c-42.667 0-84.48-11.52-120.747-33.28-15.787-9.387-29.867-20.48-43.093-33.28-7.68-7.68-14.507-16.213-21.333-24.747-7.68 15.36-16.64 29.867-29.013 42.667-29.867 31.147-71.253 48.64-114.347 48.64h-75.093v18.347c0 23.467-19.2 42.667-42.667 42.667s-42.667-19.2-42.667-42.667v-426.667c0-23.467 19.2-42.667 42.667-42.667h768c23.467 0 42.667 19.2 42.667 42.667v243.627c0 44.373-17.92 86.187-49.493 116.907zM444.16 288l0.427 0.427c6.827 12.8 15.36 24.747 26.027 34.987 8.107 8.107 17.067 15.36 26.88 21.333 23.040 13.653 49.493 20.907 76.8 20.907h196.693c22.187 0 43.52-8.533 58.88-23.467 14.933-14.933 23.467-34.987 23.467-55.893v-17.92h-419.413l10.24 19.627zM246.187 365.654c19.627 0 38.827-8.107 52.907-22.613 14.507-14.933 22.613-34.987 22.613-56.747v-17.92h-151.040v97.28h75.52zM853.333 85.334h-682.667v97.707h682.667v-97.707zM384 640h85.333v-85.333c0-23.467 19.2-42.667 42.667-42.667s42.667 19.2 42.667 42.667v85.333h85.333c23.467 0 42.667 19.2 42.667 42.667s-19.2 42.667-42.667 42.667h-85.333v85.333c0 23.467-19.2 42.667-42.667 42.667s-42.667-19.2-42.667-42.667v-85.333h-85.333c-23.467 0-42.667-19.2-42.667-42.667s19.2-42.667 42.667-42.667z" />
<glyph unicode="&#xe934;" glyph-name="arrow_down" d="M712.951 243.627c-16.64 16.64-43.52 16.64-60.16 0l-98.133-98.133v665.173c0 23.467-19.2 42.667-42.667 42.667s-42.667-19.2-42.667-42.667v-665.173l-97.706 97.707c-16.64 16.64-43.52 16.64-60.16 0s-16.64-43.52 0-60.16l170.666-170.667c0 0 0 0 0.427 0 3.84-3.84 8.533-6.827 13.653-8.96 10.24-4.267 22.187-4.267 32.853 0 5.12 2.133 9.813 5.12 13.653 8.96 0 0 0 0 0.427 0l170.667 170.667c15.787 16.64 15.787 43.947-0.853 60.587z" />
<glyph unicode="&#xe935;" glyph-name="arrow_up" d="M712.922 670.507l-170.432 170.667c-3.831 3.84-8.521 6.4-13.205 8.533-0.427 0-0.427 0.427-0.853 0.427-10.654 4.267-22.583 4.267-33.233 0-0.427 0-0.427-0.427-0.853-0.427-4.689-2.133-8.947-4.693-12.783-8.533l-170.432-170.667c-16.617-16.64-16.617-43.947 0-60.587s43.46-16.64 60.077 0l98.425 98.133v-665.173c0-23.467 19.174-42.667 42.607-42.667 23.437 0 42.607 19.2 42.607 42.667v665.173l97.574-98.133c16.619-16.64 43.46-16.64 60.079 0 17.041 16.64 17.041 43.947 0.422 60.587z" />
<glyph unicode="&#xe936;" glyph-name="filter" d="M85.333 682.667c0 23.564 19.103 42.667 42.667 42.667h768c23.565 0 42.667-19.103 42.667-42.667s-19.102-42.667-42.667-42.667h-768c-23.564 0-42.667 19.103-42.667 42.667zM213.333 426.667c0 23.565 19.103 42.667 42.667 42.667h512c23.565 0 42.667-19.102 42.667-42.667s-19.102-42.667-42.667-42.667h-512c-23.564 0-42.667 19.102-42.667 42.667zM384 213.334c-23.564 0-42.667-19.102-42.667-42.667s19.103-42.667 42.667-42.667h256c23.565 0 42.667 19.102 42.667 42.667s-19.102 42.667-42.667 42.667h-256z" />
<glyph unicode="&#xe937;" glyph-name="finance" d="M574.293 449.054l-93.867 35.392c-4.267 1.707-7.253 4.267-8.96 7.253-2.133 2.556-2.56 5.542-1.707 8.098 0.427 2.56 2.133 5.547 5.12 8.102 3.413 2.56 8.107 4.266 12.8 4.266h92.587c23.467 0 42.667 19.189 42.667 42.643s-19.2 42.643-42.667 42.643h-25.6v21.321c0 23.453-19.2 42.643-42.667 42.643s-42.667-19.189-42.667-42.643v-23.027c-16.64-2.985-32.853-9.808-46.507-20.468-18.773-14.072-32-34.967-36.693-58.421-5.12-23.455-0.853-47.336 11.093-68.23 11.947-20.467 30.72-35.819 52.907-44.348l93.867-35.392c4.267-1.707 7.253-4.267 8.96-7.253 1.707-2.556 2.133-5.542 1.28-8.098-0.427-2.56-2.133-5.547-5.547-8.102-3.413-2.56-7.68-4.267-12.8-4.267h-92.16c-23.467 0-42.667-19.187-42.667-42.641s19.2-42.645 42.667-42.645h25.6v-12.791c0-23.454 19.2-42.645 42.667-42.645s42.667 19.191 42.667 42.645v14.498c16.64 2.987 32.853 9.809 46.507 20.467 18.773 14.498 32 34.97 36.693 58.423s0.853 47.761-11.093 68.228c-11.947 20.894-30.72 36.245-52.48 44.348zM902.827 566.323c-18.347 32.835-43.947 60.127-73.813 79.316v54.156c0 26.865-8.533 53.73-25.6 75.052s-42.667 35.82-72.107 35.82h-438.613c-29.44 0-55.040-14.499-72.107-35.82s-25.6-48.187-25.6-75.052v-54.583c-30.293-19.189-55.467-46.481-73.813-79.316-23.467-41.364-35.84-89.975-35.84-139.016s12.373-97.651 35.84-139.443c18.347-32.836 43.947-60.126 73.813-79.317v-54.579c0-26.867 8.533-53.73 25.6-75.055 17.067-21.321 42.667-35.819 72.107-35.819h438.613c29.44 0 55.040 14.498 72.107 35.819 17.067 21.325 25.6 48.188 25.6 75.055v54.579c30.293 19.191 55.467 46.481 73.813 79.317 23.467 41.792 35.84 90.402 35.84 139.443s-12.373 97.652-35.84 139.442zM828.587 329.656c-15.787-27.721-37.12-46.908-59.733-56.717-15.36-6.822-25.6-22.174-25.6-39.232v-79.74c0-9.382-2.987-17.058-6.827-21.751-1.707-2.129-3.413-2.982-4.267-3.409 0-0.427-0.427-0.427-0.853-0.427h-438.613c0 0-0.427 0-1.28 0.427s-2.56 1.707-4.267 3.409c-3.413 4.267-6.827 11.942-6.827 21.751v79.74c0 17.058-9.813 32.41-25.6 39.232-22.613 9.809-43.947 28.996-59.733 56.717-15.36 27.716-24.32 61.833-24.32 97.225s8.96 69.508 24.747 97.226c15.787 27.718 37.12 46.907 59.733 56.715 15.36 6.823 25.6 22.174 25.6 39.232v79.742c0 9.382 2.987 17.057 6.827 21.748 1.707 2.132 3.413 2.985 4.267 3.412 0 0.426 0.853 0.426 0.853 0.426h438.613c0 0 0.427 0 1.28-0.426s2.56-1.706 4.267-3.412c3.413-4.264 6.827-11.94 6.827-21.748v-79.742c0-17.057 9.813-32.409 25.6-39.232 22.613-9.808 43.947-28.997 59.733-56.715 15.36-27.718 24.32-61.834 24.32-97.226s-8.96-69.508-24.747-97.225z" />
<glyph unicode="&#xe938;" glyph-name="folder_closed" d="M85.333 682.667c0 47.128 38.205 85.333 85.333 85.333h147.832c28.531 0 55.175-14.259 71.002-37.999l60.001-90.001h403.831c47.13 0 85.333-38.205 85.333-85.333v-384c0-47.13-38.204-85.333-85.333-85.333h-682.667c-47.128 0-85.333 38.204-85.333 85.333v512zM318.499 682.667h-147.832v-512h682.667v384h-449.501l-85.333 128z" />
<glyph unicode="&#xe939;" glyph-name="folder_opened" d="M834.56 512h-23.893v85.333c0 46.933-37.973 85.333-85.333 85.333h-298.667c0 46.933-37.973 85.333-85.333 85.333h-170.667c-46.933 0-85.333-38.4-85.333-85.333v-512c0-46.933 38.4-85.333 85.333-85.333h567.893c35.413 0 67.413 22.187 79.787 55.467l96 256c20.907 55.467-20.48 115.2-79.787 115.2zM170.667 682.667h170.667v-42.667c0-23.467 19.2-42.667 42.667-42.667h341.333v-85.333h-384c-19.2 0-36.267-12.8-41.387-31.573l-82.347-309.76h-46.933v512zM738.56 170.667h-432.64l68.267 256h460.373l-96-256z" />
<glyph unicode="&#xe93a;" glyph-name="forward_more" d="M110.641 3.691c-15.392 6.857-25.308 22.127-25.308 38.976v768c0 16.849 9.916 32.121 25.308 38.976s33.377 4.010 45.901-7.262l426.668-384c8.99-8.090 14.123-19.618 14.123-31.714s-5.133-23.62-14.123-31.714l-426.668-384c-12.524-11.273-30.509-14.118-45.901-7.262zM490.889 426.667l-320.222 288.198v-576.395l320.222 288.196zM451.977 3.691c-15.394 6.857-25.31 22.127-25.31 38.976v128c0 23.565 19.102 42.667 42.667 42.667s42.667-19.102 42.667-42.667v-32.196l320.222 288.196-320.222 288.198v-32.198c0-23.564-19.102-42.667-42.667-42.667s-42.667 19.103-42.667 42.667v128c0 16.849 9.916 32.121 25.31 38.976 15.39 6.855 33.374 4.010 45.901-7.262l426.667-384c8.99-8.090 14.123-19.618 14.123-31.714s-5.133-23.62-14.123-31.714l-426.667-384c-12.527-11.273-30.511-14.118-45.901-7.262z" />
<glyph unicode="&#xe93b;" glyph-name="forward" d="M281.308 3.691c-15.392 6.857-25.308 22.127-25.308 38.976v768c0 16.849 9.916 32.121 25.308 38.976s33.377 4.010 45.901-7.262l426.668-384c8.99-8.090 14.123-19.618 14.123-31.714s-5.133-23.62-14.123-31.714l-426.668-384c-12.524-11.273-30.509-14.118-45.901-7.262zM661.555 426.667l-320.222 288.198v-576.395l320.222 288.196z" />
<glyph unicode="&#xe93c;" glyph-name="friend_family" d="M738.556 237.654c8.96 5.12 17.067 11.093 24.32 18.347 11.52 11.52 20.48 25.173 26.88 40.533s9.387 31.147 9.387 47.787c0 16.213-2.987 32.427-9.387 47.787-6.4 14.933-15.36 29.013-26.88 40.533s-25.173 20.907-40.107 27.307c-14.933 6.4-31.573 9.387-47.787 9.387s-32.427-3.413-47.787-9.387c-14.933-6.4-28.587-15.36-40.107-27.307-11.52-11.52-20.48-25.6-26.88-40.533s-9.387-31.147-9.387-47.787c0-16.213 3.413-32.427 9.387-47.787 6.4-14.933 15.36-29.013 26.88-40.533 7.253-7.253 15.36-13.227 24.32-18.347-23.467-8.96-44.8-22.613-62.72-40.533-15.787-15.787-27.733-34.56-36.693-54.613-8.96 20.053-20.907 38.827-36.693 54.613-17.92 17.92-39.253 31.573-62.72 40.533 8.533 5.12 17.066 11.093 24.32 18.347 23.040 23.467 36.267 55.040 36.267 88.32 0 32.853-12.8 64.853-36.267 88.32-23.040 23.467-54.613 36.693-87.893 36.693-32.853 0-64.427-13.227-87.893-36.693-23.040-23.467-36.267-55.040-36.267-88.32 0-32.853 12.8-64.853 36.267-88.32 7.253-7.253 15.787-13.227 24.32-18.347-23.467-8.96-44.8-22.613-62.72-40.533-33.28-33.707-52.053-79.36-52.053-127.147v-27.307c0-23.467 19.2-42.667 42.667-42.667s42.667 19.2 42.667 42.667v27.307c0 25.173 9.813 49.067 27.307 66.987 17.493 17.493 40.96 27.733 65.707 27.733s48.213-9.813 65.707-27.733c17.493-17.493 27.306-41.813 27.306-66.987v-27.307c0-23.467 19.2-42.667 42.667-42.667 10.667 0 19.627 4.267 27.307 10.667 7.253-6.4 16.64-10.667 27.307-10.667 23.467 0 42.667 19.2 42.667 42.667v27.307c0 25.173 9.813 49.067 27.307 66.987 17.493 17.493 40.96 27.733 65.707 27.733s48.213-9.813 65.707-27.733c17.493-17.493 27.307-41.813 27.307-66.987v-27.307c0-23.467 19.2-42.667 42.667-42.667s42.667 19.2 42.667 42.667v27.307c0 47.36-18.773 93.013-52.053 127.147-17.92 17.92-39.68 31.573-62.72 40.533zM321.703 372.48c7.253 7.68 17.067 11.52 27.307 11.52s20.053-3.84 27.307-11.52c7.253-7.253 11.52-17.493 11.52-28.16s-4.267-20.907-11.52-28.16c-7.253-7.253-17.067-11.52-27.307-11.52s-20.053 3.84-27.307 11.52c-7.253 7.253-11.52 17.493-11.52 28.16s4.267 20.907 11.52 28.16zM639.142 359.68c2.133 4.693 4.693 9.387 8.533 12.8 3.84 3.84 7.68 6.4 12.373 8.533s9.813 2.987 14.933 2.987c5.12 0 10.24-0.853 14.933-2.987s8.96-4.693 12.373-8.533c3.413-3.84 6.4-8.107 8.533-12.8s2.987-9.813 2.987-15.36c0-5.12-0.853-10.667-2.987-15.36s-5.12-9.387-8.533-12.8c-3.413-3.84-7.68-6.4-12.373-8.533s-9.813-2.987-14.933-2.987c-5.12 0-9.813 0.853-14.507 2.987s-8.96 4.693-12.373 8.533c-3.413 3.84-6.4 8.107-8.533 12.8s-2.987 9.813-2.987 15.36c-0.427 5.547 0.427 10.667 2.56 15.36zM921.169 577.707l-353.707 257.707c-16.213 11.52-35.413 17.92-55.467 17.92s-39.253-6.4-55.467-17.92l-353.706-257.707c-19.2-14.080-23.040-40.533-9.387-59.733 14.080-19.2 40.533-23.040 59.733-9.387l353.706 257.707c1.28 1.28 3.413 1.707 5.12 1.707s3.84-0.427 5.12-1.707l353.707-257.707c19.2-14.080 45.653-9.813 59.733 9.387 13.653 19.2 9.387 45.653-9.387 59.733z" />
<glyph unicode="&#xe93d;" glyph-name="guest_in_house" d="M922.027 545.707l-384 298.667c-15.36 11.947-37.12 11.947-52.48 0l-384-298.667c-18.773-14.507-21.76-41.387-7.253-59.733 14.507-18.773 41.387-22.187 59.733-7.68l357.973 278.187 357.973-278.187c18.773-14.507 45.227-11.093 59.733 7.68 14.507 18.347 11.093 45.227-7.68 59.733zM656.64 165.12c-14.507 8.107-30.293 14.080-46.080 19.627 9.813 6.4 19.2 14.080 27.307 22.613 16.64 16.64 29.867 36.267 38.827 58.027s13.653 44.8 13.653 68.267c0 23.467-4.693 46.507-13.653 68.267s-22.187 41.387-38.827 58.027c-16.64 16.213-36.267 29.44-58.027 38.4-21.333 8.96-44.373 13.653-67.84 13.653s-46.507-4.693-68.267-13.653c-21.76-8.96-41.386-22.187-58.026-38.4-16.64-16.64-29.867-36.267-38.827-58.027s-13.653-44.8-13.653-68.267c0-23.467 4.693-46.507 13.653-68.267s22.187-41.387 38.827-58.027c8.533-8.533 17.493-15.787 27.307-22.613-15.787-5.547-31.573-11.52-46.080-19.627-43.947-23.893-80.64-58.88-105.387-100.693-11.947-20.48-5.12-46.507 15.36-58.453s46.507-5.12 58.453 14.933c16.64 28.16 41.387 52.48 72.533 69.547 31.146 16.64 66.986 26.027 104.106 26.027s72.96-9.387 104.107-26.027c31.147-17.067 55.893-41.387 72.533-69.547 11.947-20.053 37.973-26.88 58.453-14.933s27.307 37.973 15.36 58.453c-25.173 41.813-61.44 76.8-105.813 100.693zM425.814 369.067c4.693 11.52 11.52 21.76 20.053 30.293s18.773 15.36 30.293 20.053c11.52 4.693 23.467 7.253 35.84 7.253s24.32-2.56 35.84-7.253c11.52-4.693 21.76-11.52 30.293-20.053s15.36-18.773 20.053-30.293c4.693-11.093 7.253-23.467 7.253-35.413 0-12.373-2.56-24.32-7.253-35.84-4.693-11.093-11.52-21.333-20.053-29.867-8.533-8.96-18.773-15.787-30.293-20.48s-23.467-6.827-35.84-6.827c-12.373 0-24.32 2.133-35.413 6.827-11.52 4.693-21.76 11.52-30.293 20.48-8.533 8.533-15.36 18.773-20.053 29.867-4.693 11.52-7.253 23.467-7.253 35.84 0 11.947 2.133 24.32 6.827 35.413z" />
<glyph unicode="&#xe93e;" glyph-name="facebook" d="M721.097 581.227c-3.025 3.424-7.33 5.376-11.895 5.44h-121.199v45.12c0 8.96 1.929 19.2 16.393 19.2h96.448c4.275-0.192 8.422 1.568 11.251 4.8 2.829 2.912 4.437 6.816 4.501 10.88v128c0 8.832-7.202 16-16.077 16h-139.2c-154.312 0-166.207-131.2-166.207-171.2v-52.8h-80.37c-8.873 0-16.074-7.168-16.074-16v-128c0-8.832 7.201-16 16.074-16h80.37v-368c0-8.832 7.201-16 16.074-16h160.74c8.875 0 16.077 7.168 16.077 16v368h107.695c8.294-0.030 15.241 6.208 16.077 14.4l13.5 128c0.388 4.448-1.126 8.864-4.177 12.16z" />
<glyph unicode="&#xe93f;" glyph-name="help_center" d="M853.333 853.334h-682.667c-46.933 0-85.333-38.4-85.333-85.333v-533.333c0-46.933 38.4-85.333 85.333-85.333h85.333v-106.667c0-14.933 7.68-29.013 20.907-36.693 12.8-7.68 29.013-8.107 42.24-0.853l267.947 144.213h266.24c47.36 0 85.333 38.4 85.333 85.333v533.333c0 46.933-37.973 85.333-85.333 85.333zM853.333 234.667h-277.333c-6.827 0-14.080-1.707-20.053-5.12l-214.613-115.627v78.080c0 23.467-19.2 42.667-42.667 42.667h-128v533.333h682.667v-533.333zM426.667 533.334c23.467 0 42.667 19.2 42.667 42.667 0 7.68 2.133 15.36 6.4 22.187s9.813 11.947 16.64 15.787c6.827 3.413 14.933 5.12 22.613 4.693 7.68-0.853 15.36-3.413 21.76-7.68 6.4-4.693 11.52-10.667 14.507-17.92s4.267-15.36 2.987-23.040c-1.28-7.68-4.267-14.933-9.387-20.907s-11.52-10.667-18.773-13.227c-16.64-5.973-31.147-17.067-41.387-31.147-9.813-14.507-15.36-32-15.36-49.493v-28.587c0-23.467 19.2-42.667 42.667-42.667s42.667 19.2 42.667 42.667v28.587c22.187 7.68 41.813 21.76 56.32 39.68 14.933 18.347 24.32 40.107 27.733 63.573 3.413 23.040 0 46.933-9.387 68.267-9.387 21.76-24.32 40.107-43.52 53.76s-41.813 21.333-64.853 23.040c-23.040 1.707-46.933-2.987-67.84-14.080-20.907-10.667-38.4-26.88-50.347-46.933-12.373-20.053-18.773-43.093-18.773-66.56s19.2-42.667 42.667-42.667zM512 277.334c23.565 0 42.667 19.102 42.667 42.667s-19.102 42.667-42.667 42.667c-23.565 0-42.667-19.102-42.667-42.667s19.102-42.667 42.667-42.667z" />
<glyph unicode="&#xe940;" glyph-name="help" d="M810.667 853.334h-597.333c-70.827 0-128-57.173-128-128v-597.333c0-70.827 57.173-128 128-128h597.333c70.827 0 128 57.173 128 128v597.333c0 70.827-57.173 128-128 128zM853.333 128c0-23.467-19.2-42.667-42.667-42.667h-597.333c-23.467 0-42.667 19.2-42.667 42.667v597.333c0 23.467 19.2 42.667 42.667 42.667h597.333c23.467 0 42.667-19.2 42.667-42.667v-597.333zM598.187 655.36c-22.187 15.787-48.64 25.173-75.947 26.88-27.307 2.133-54.613-3.84-78.933-16.213-24.32-12.8-44.8-31.573-58.88-55.040s-21.76-50.347-21.76-77.653c0-23.467 19.2-42.667 42.667-42.667s42.667 19.2 42.667 42.667c0 11.947 3.413 23.040 9.387 33.28 5.973 9.813 14.933 18.347 25.173 23.467 10.24 5.547 22.187 8.107 33.707 7.253s23.040-5.12 32.427-11.947c9.387-6.4 17.067-15.787 21.76-26.453 4.693-11.093 6.4-22.613 4.693-34.56-1.707-11.52-6.4-22.613-13.653-31.573s-17.067-15.787-28.16-19.627c-18.773-6.827-34.987-19.2-46.507-35.413s-17.493-35.413-17.493-55.467v-35.413c0-23.893 19.2-42.667 42.667-42.667s42.667 18.773 42.667 42.667v35.413c0 2.56 0.853 4.693 2.133 6.4s2.987 2.987 5.12 3.84c26.027 8.96 48.64 25.173 66.133 46.507 17.067 20.907 28.587 46.507 32.427 73.813 3.84 26.88 0 54.613-11.093 79.787s-28.587 46.933-51.2 62.72zM512 170.667c23.565 0 42.667 19.102 42.667 42.667s-19.102 42.667-42.667 42.667c-23.565 0-42.667-19.102-42.667-42.667s19.102-42.667 42.667-42.667z" />
<glyph unicode="&#xe941;" glyph-name="past_shifts" d="M931.418 501.334c-14.507 74.238-49.92 142.505-102.4 196.265-52.48 54.187-119.467 90.88-192.427 105.813s-148.48 7.253-217.6-22.187c-68.693-29.013-127.147-78.507-168.107-141.653-32.427-49.493-52.48-105.813-59.733-164.265l-32.427 33.707c-16.64 16.638-43.52 17.065-60.587 0.853-17.067-16.64-17.067-43.52-0.853-60.587l102.4-104.96c0 0 0.427 0 0.427-0.427 3.84-3.84 8.533-6.827 13.653-8.96s10.667-3.413 16.64-3.413c5.973 0 11.52 1.28 16.64 3.413s9.813 5.12 13.653 9.387c0 0 0.427 0 0.427 0.427l102.4 104.96c16.213 16.64 15.787 43.52-0.853 60.16-17.067 16.211-43.947 15.785-60.587-0.853l-22.613-23.467c7.68 38.398 21.333 74.665 42.667 107.518 32 49.067 77.653 87.040 130.56 109.653s110.933 28.16 167.253 17.067c55.893-11.52 107.52-39.68 148.053-81.493s68.267-95.147 79.787-153.171c11.093-58.027 5.547-118.187-16.64-173.227-22.187-54.613-59.307-101.12-107.093-133.973-47.787-32.427-103.68-49.92-160.853-49.92-23.467 0-42.667-19.2-42.667-42.667s19.2-42.667 42.667-42.667c74.667 0 147.2 22.613 209.067 64.853 61.867 42.667 109.653 102.4 137.813 172.373 28.587 70.4 35.84 147.2 21.333 221.44zM554.671 639.998c-23.467 0-42.667-19.2-42.667-42.667v-213.331c0-23.467 19.2-42.667 42.667-42.667h128c23.467 0 42.667 19.2 42.667 42.667s-19.2 42.667-42.667 42.667h-85.333v170.665c0 23.467-19.2 42.667-42.667 42.667z" />
<glyph unicode="&#xe942;" glyph-name="house_use" d="M926.234 456.96l-384.119 384c-16.644 16.64-43.533 16.64-60.177 0l-384.12-384c-16.645-16.64-16.645-43.947 0-60.587s43.534-16.64 60.179 0l353.816 354.133 353.818-354.133c16.644-16.64 43.533-16.64 60.177 0 17.075 16.64 17.075 43.947 0.427 60.587zM767.893 384c-23.475 0-42.679-19.2-42.679-42.667v-256h-426.801v256c0 23.467-19.206 42.667-42.68 42.667s-42.68-19.2-42.68-42.667v-298.667c0-23.467 19.206-42.667 42.68-42.667h512.16c23.475 0 42.679 19.2 42.679 42.667v298.667c0 23.467-19.204 42.667-42.679 42.667zM542.967 226.134l92.617 93.44c34.146 34.133 34.146 89.6 0 124.16-34.142 34.133-89.626 34.133-123.772 0-34.142 34.133-89.627 34.133-123.771 0-34.144-34.56-34.144-90.027 0-124.16l92.616-93.44c17.498-17.067 45.239-17.067 62.31 0z" />
<glyph unicode="&#xe943;" glyph-name="import_customers" d="M935.253 229.739c-0.853 1.707-1.707 2.56-2.56 4.271-1.707 3.413-3.413 6.827-6.4 9.813-3.84 3.844-8.107 6.404-12.8 8.538-0.427 0-0.427 0.427-0.853 0.427-5.547 2.133-11.093 3.418-17.067 3.418h-127.573c-23.467 0-42.667-19.209-42.667-42.684s19.2-42.684 42.667-42.684h24.747l-97.707-97.745c-16.64-16.644-16.64-43.959 0-60.608 16.64-16.644 43.52-16.644 60.16 0l98.133 97.318v-24.759c0-23.475 19.2-42.679 42.667-42.679s42.667 19.204 42.667 42.679v128.051c0 5.547-1.28 11.098-3.413 16.644zM896 341.142c23.467 0 42.667 19.209 42.667 42.684s-19.2 42.679-42.667 42.679h-213.333c-10.24 0-20.48-3.84-28.16-10.667l-142.507-124.634v220.668c0 44.817-22.613 83.658-57.173 106.707 34.56 23.049 57.173 61.89 57.173 106.706 0 70.854-57.173 128.048-128 128.048s-128-57.195-128-128.048c0-44.817 22.613-83.658 57.173-106.706-34.56-23.049-57.173-61.89-57.173-106.707v-384.145h-128c-23.467 0-42.667-19.204-42.667-42.684 0-23.475 19.2-42.679 42.667-42.679h213.333c10.24 0 20.48 3.84 28.16 10.671l329.387 288.107h197.12zM384 767.968c23.467 0 42.667-19.207 42.667-42.683s-19.2-42.682-42.667-42.682c-23.467 0-42.667 19.207-42.667 42.682s19.2 42.683 42.667 42.683zM341.333 141.812v370.061c0 23.475 19.2 42.682 42.667 42.682s42.667-19.207 42.667-42.682v-295.364l-85.333-74.697z" />
<glyph unicode="&#xe944;" glyph-name="important" d="M512 832c18.027 0 34.287-10.776 41.212-27.315l95.778-228.796 248.61-19.802c17.971-1.431 33.31-13.464 38.882-30.499 5.568-17.035 0.277-35.727-13.414-47.38l-189.414-161.207 57.869-241.033c4.186-17.425-2.594-35.635-17.178-46.165-14.588-10.53-34.116-11.307-49.502-1.967l-212.843 129.165-212.844-129.165c-15.386-9.34-34.914-8.563-49.499 1.967s-21.363 28.74-17.18 46.165l57.869 241.033-189.414 161.207c-13.692 11.652-18.983 30.345-13.412 47.38s20.911 29.068 38.881 30.499l248.609 19.802 95.778 228.796c6.925 16.538 23.185 27.315 41.212 27.315zM512 672.185l-65.041-155.363c-6.426-15.352-20.958-25.844-37.641-27.175l-168.817-13.444 128.621-109.466c12.711-10.82 18.262-27.793 14.379-43.968l-39.296-163.674 144.529 87.71c14.285 8.666 32.247 8.666 46.532 0l144.529-87.71-39.296 163.674c-3.883 16.175 1.668 33.148 14.379 43.968l128.623 109.466-168.819 13.444c-16.683 1.331-31.215 11.823-37.641 27.175l-65.041 155.363z" />
<glyph unicode="&#xe945;" glyph-name="installations" d="M810.667 853.334h-597.333c-70.827 0-128-57.173-128-128v-597.333c0-70.827 57.173-128 128-128h597.333c70.827 0 128 57.173 128 128v597.333c0 70.827-57.173 128-128 128zM213.333 768h597.333c23.467 0 42.667-19.2 42.667-42.667v-42.667h-682.667v42.667c0 23.467 19.2 42.667 42.667 42.667zM810.667 85.334h-597.333c-23.467 0-42.667 19.2-42.667 42.667v469.333h682.667v-469.333c0-23.467-19.2-42.667-42.667-42.667zM725.333 469.334h-426.667c-46.933 0-85.333-38.4-85.333-85.333v-85.333c0-46.933 38.4-85.333 85.333-85.333h426.667c47.36 0 85.333 38.4 85.333 85.333v85.333c0 46.933-37.973 85.333-85.333 85.333zM298.667 384h256v-85.333h-256v85.333zM725.333 298.667h-85.333v85.333h85.333v-85.333z" />
<glyph unicode="&#xe946;" glyph-name="integrations" d="M896.427 294.4c-27.307 27.733-64 43.52-102.827 43.52-8.96 0-17.493-0.853-26.027-2.56l-145.067 233.387c21.76 26.453 34.133 59.733 34.133 94.293 0 38.827-14.933 76.373-42.24 104.107-26.453 27.733-63.573 43.52-102.4 43.52s-75.947-15.787-102.827-43.52c-27.307-27.733-42.24-65.28-42.24-104.107 0-34.56 12.373-67.84 34.133-94.293l-145.067-233.387c-8.533 1.707-17.067 2.56-26.027 2.56-38.827 0-75.947-15.787-102.827-43.52s-41.813-65.28-41.813-104.107c0-38.827 14.933-76.373 42.24-104.107 26.88-27.733 64-43.52 102.827-43.52s75.947 15.787 102.827 43.52c17.067 17.493 28.587 38.4 35.413 61.44h286.72c6.827-23.040 18.347-43.947 35.413-61.44 27.307-27.733 64-43.52 102.827-43.52s75.947 15.787 102.827 43.52c27.307 27.733 42.24 65.28 42.24 104.107s-14.933 76.373-42.24 104.107zM470.187 707.414c11.093 11.52 26.453 17.92 41.813 17.92s30.72-6.4 41.813-17.92c11.52-11.52 17.92-27.733 17.92-44.373 0-17.067-6.4-32.853-17.92-44.373-11.093-11.947-26.453-17.92-41.813-17.92s-30.72 5.973-41.813 17.92c-11.52 11.52-17.92 27.307-17.92 44.373 0 16.64 6.4 32.853 17.92 44.373zM472.32 521.814c12.8-3.84 26.027-6.4 39.68-6.4s26.88 2.56 39.68 6.4l140.373-226.133c-0.427-0.427-0.853-0.853-1.28-1.28-17.067-17.493-28.587-38.4-35.413-61.44h-286.72c-6.827 23.040-18.347 43.947-35.413 61.44-0.427 0.427-0.853 0.853-1.28 1.28l140.373 226.133zM272.213 145.92c-11.093-11.52-26.453-17.92-41.813-17.92s-30.72 6.4-41.813 17.92c-11.52 11.52-17.92 27.733-17.92 44.373 0 17.067 6.4 32.853 17.92 44.373 11.52 11.947 26.453 17.92 41.813 17.92s30.72-5.973 41.813-17.92c11.52-11.52 17.92-27.307 17.92-44.373 0-16.64-6.4-32.853-17.92-44.373zM835.413 145.92c-11.093-11.52-26.453-17.92-41.813-17.92s-30.72 6.4-41.813 17.92c-11.52 11.52-17.92 27.733-17.92 44.373 0 17.067 6.4 32.853 17.92 44.373 11.52 11.947 26.453 17.92 41.813 17.92s30.72-5.973 41.813-17.92c11.52-11.52 17.92-27.307 17.92-44.373 0-16.64-6.4-32.853-17.92-44.373z" />
<glyph unicode="&#xe947;" glyph-name="inventory_updates" d="M173.227 395.52c-0.853 0.853-1.707 1.707-1.707 2.56-0.853 1.28-0.853 2.133-0.853 2.987s0 2.133 0.427 2.987c0.427 0.853 0.853 1.707 1.707 2.56l368.64 358.4c0.853 0.853 2.133 1.707 3.413 2.133s2.987 0.853 4.267 0.853h189.013c2.987 0 5.547-1.28 7.253-2.987s2.56-3.84 2.56-5.547v-160.853c0-23.467 19.2-42.667 42.667-42.667s42.667 19.2 42.667 42.667v160.853c0 25.173-10.24 49.493-28.16 66.987-17.92 17.067-42.24 26.88-66.987 26.88h-189.013c-12.373 0-24.747-2.56-35.84-6.827-11.52-4.693-22.187-11.52-31.147-20.053l-368.64-358.4c-8.533-8.96-15.787-19.2-20.907-30.72s-7.253-23.893-7.253-36.267c0-12.373 2.56-24.747 7.253-36.267s11.947-21.76 20.907-30.72l188.587-183.467c17.067-16.213 43.947-15.787 60.16 0.853 16.64 17.067 16.213 43.947-0.853 60.587l-188.16 183.467zM617.387 692.907c0-22.613 18.773-40.96 42.24-40.96s42.24 18.347 42.24 40.96c0 22.613-19.2 40.96-42.24 40.96-23.467 0-42.24-18.347-42.24-40.96zM889.6 211.627c-22.187 7.68-46.507-3.84-54.613-26.027-10.667-30.72-31.573-57.173-59.733-75.52-28.16-17.92-61.867-26.453-95.573-24.32s-65.707 15.36-90.88 36.693c-10.667 8.96-19.2 19.627-26.88 31.147h44.373c23.467 0 42.667 19.2 42.667 42.667s-19.2 42.667-42.667 42.667h-131.413c-23.467 0-42.667-19.2-42.667-42.667v-128c0-23.467 19.2-42.667 42.667-42.667s42.667 19.2 42.667 42.667v5.973c5.12-5.547 10.24-11.093 15.787-16.213 39.253-34.133 88.747-54.187 140.8-57.6s103.68 9.813 147.627 37.973c43.52 28.587 76.8 69.973 93.867 118.613 8.107 22.187-3.84 46.507-26.027 54.613zM896 469.334c-23.467 0-42.667-19.2-42.667-42.667v-5.973c-5.12 5.547-10.24 11.093-15.787 16.213-39.253 34.133-89.173 54.187-140.8 57.6-52.053 3.413-103.68-9.813-147.627-37.973-43.52-28.16-76.8-69.973-93.867-118.613-7.68-22.187 3.84-46.507 26.027-54.613 22.187-7.68 46.507 3.84 54.613 26.453 10.667 30.293 31.573 56.747 59.733 75.093 28.16 17.92 61.867 26.453 95.573 24.32s65.707-15.36 91.307-36.693c10.667-8.96 19.2-19.627 26.88-31.147h-44.373c-23.467 0-42.667-19.2-42.667-42.667s19.2-42.667 42.667-42.667h130.987c23.467 0 42.667 19.2 42.667 42.667v128c0 23.467-19.2 42.667-42.667 42.667z" />
<glyph unicode="&#xe948;" glyph-name="items" d="M895.996 810.667h-35.84c-22.187 0-43.947-7.253-61.44-20.907-17.92-13.653-30.72-33.707-34.56-56.32l-13.653-74.24h-595.2c-10.24 0-20.053-2.133-29.44-6.4s-17.92-10.667-24.747-18.773c-6.827-8.107-11.52-17.493-14.080-28.16s-2.133-21.76 0.853-32l52.907-195.84c8.533-32 28.16-59.307 55.040-78.507 26.88-19.627 59.307-29.867 92.587-29.867h390.4l-11.093-59.307c0-0.853-0.853-2.56-2.987-4.267s-5.547-2.987-8.96-2.987h-362.667c-23.467 0-42.667-18.773-42.667-42.667 0-23.467 19.2-42.667 42.667-42.667h362.667c22.187 0 43.947 7.253 61.44 21.333 17.92 13.653 30.293 33.28 34.56 55.893l96.427 523.093c0.427 0.853 0.853 2.56 2.987 4.267 1.707 1.707 5.12 2.987 8.96 2.987h35.84c23.467 0 42.667 19.2 42.667 42.667s-19.2 42.667-42.667 42.667zM288.422 354.987c-15.787 0-30.72 5.12-42.667 13.653s-19.627 19.627-22.613 31.573l-46.933 173.653h558.507l-40.533-218.88h-405.76zM365.222 78.080c-7.253 4.693-15.36 7.253-23.893 7.253-11.52 0-22.187-4.693-30.293-12.373-7.68-8.107-12.373-18.773-12.373-30.293 0-8.533 2.56-16.64 7.253-23.893 4.693-6.827 11.52-12.373 19.2-15.36 7.68-3.413 16.213-4.267 24.747-2.56 8.107 1.707 15.787 5.547 21.76 11.52s9.813 13.653 11.52 21.76c1.707 8.533 0.853 17.067-2.56 24.747-2.987 8.107-8.533 14.507-15.36 19.2zM663.889 78.080c-7.253 4.693-15.36 7.253-23.893 7.253-11.52 0-22.187-4.693-30.293-12.373-7.68-8.107-12.373-18.773-12.373-30.293 0-8.533 2.56-16.64 7.253-23.893 4.693-6.827 11.52-12.373 19.2-15.36 7.68-3.413 16.213-4.267 24.747-2.56 8.107 1.707 15.787 5.547 21.76 11.52s9.813 13.653 11.52 21.76c1.707 8.533 0.853 17.067-2.56 24.747-2.987 8.107-8.533 14.507-15.36 19.2z" />
<glyph unicode="&#xe949;" glyph-name="key" d="M671.573 712.534c-33.707 0-65.707-13.227-89.6-36.693-23.893-23.893-37.12-56.32-37.12-89.6 0-33.707 13.227-65.707 37.12-89.6s55.893-37.12 89.6-37.12c33.707 0 65.707 13.227 89.6 37.12s37.12 55.893 37.12 89.6c0 33.28-13.227 65.707-37.12 89.6-23.893 23.467-55.893 36.693-89.6 36.693zM700.587 556.8c-7.68-7.68-18.347-11.947-29.013-11.947-11.093 0-21.333 4.267-29.013 11.947-7.68 8.107-11.947 18.347-11.947 29.44 0 10.667 4.267 21.333 11.947 29.013s18.347 11.947 29.013 11.947c11.093 0 21.333-4.267 29.013-11.947s11.947-18.347 11.947-29.013c0-11.093-4.267-21.333-11.947-29.44zM860.587 775.254c-44.8 44.8-104.107 72.107-167.253 77.227s-125.867-12.8-177.493-49.92c-51.2-37.12-87.893-91.307-102.827-152.747-12.373-51.2-9.387-104.96 8.533-154.027l-303.36-303.36c-20.907-21.333-32.853-49.92-32.853-79.787s11.947-58.453 32.853-79.787c21.333-20.907 49.92-32.853 79.787-32.853s58.453 11.947 79.787 32.853l19.2 19.2 19.627-19.627c18.347-18.347 43.52-28.587 69.547-28.587s51.2 10.24 69.547 28.587c18.347 18.773 29.013 43.52 29.013 69.973 0 26.027-10.24 51.2-29.013 69.547l-19.627 19.627 145.067 145.067c49.067-17.92 102.827-20.907 154.027-8.533 61.44 14.933 115.627 51.2 152.747 102.4 37.12 51.627 54.613 114.347 49.92 177.493-5.12 63.147-32.427 122.453-77.227 167.253zM818.773 480.854c-25.173-34.987-62.293-59.733-104.107-69.973s-85.76-5.12-124.16 14.507c-16.64 8.107-36.267 5.12-49.493-8.107l-195.413-195.413c-16.64-16.64-16.64-43.947 0-60.587l49.493-49.493c2.56-2.56 3.84-5.973 3.84-9.387s-1.28-6.827-3.84-9.387c-2.56-2.56-5.973-3.84-9.387-3.84s-6.827 1.28-9.387 3.84l-49.92 49.493c-8.107 8.107-18.773 12.8-30.293 12.8s-22.187-4.693-30.293-12.8l-49.493-49.067c-4.267-5.12-11.093-8.107-18.347-8.107s-14.080 2.987-19.2 8.107c-5.12 5.12-8.107 11.947-8.107 19.2s2.987 14.080 8.107 19.2l323.84 323.84c12.8 13.227 16.213 33.28 8.107 49.493-19.627 38.4-24.32 82.773-14.507 124.587 10.24 41.813 34.987 78.507 69.973 103.68 34.987 25.6 77.653 37.547 120.747 34.133s83.2-22.187 113.493-52.48c30.293-30.72 49.067-70.827 52.48-113.92 3.413-42.667-8.533-85.76-34.133-120.32z" />
<glyph unicode="&#xe94a;" glyph-name="lock" d="M768 554.667v42.667c0 141.227-114.773 256-256 256s-256-114.773-256-256v-42.667c-70.827 0-128-57.173-128-128v-298.667c0-70.827 57.173-128 128-128h512c70.827 0 128 57.173 128 128v298.667c0 70.827-57.173 128-128 128zM341.333 597.334c0 94.293 76.373 170.667 170.667 170.667s170.667-76.373 170.667-170.667v-42.667h-341.333v42.667zM810.667 128c0-23.467-19.2-42.667-42.667-42.667h-512c-23.467 0-42.667 19.2-42.667 42.667v298.667c0 23.467 19.2 42.667 42.667 42.667h512c23.467 0 42.667-19.2 42.667-42.667v-298.667zM512 384c-23.467 0-42.667-19.2-42.667-42.667v-128c0-23.467 19.2-42.667 42.667-42.667s42.667 19.2 42.667 42.667v128c0 23.467-19.2 42.667-42.667 42.667z" />
<glyph unicode="&#xe94b;" glyph-name="logout" d="M935.253 410.454c4.267 10.24 4.267 21.76 0 32-0.853 2.56-2.56 4.267-4.267 6.4-1.28 2.133-2.133 4.693-4.267 6.4l-128 136.96c-16.213 17.067-43.093 18.347-60.16 2.133s-18.347-43.093-2.133-60.16l61.44-64.853h-439.468c-23.467 0-42.667-19.2-42.667-42.667s19.2-42.667 42.667-42.667h439.468l-61.013-65.28c-16.213-17.067-15.36-44.373 2.133-60.16s44.373-14.933 60.16 2.133l128 136.96c2.133 2.133 2.987 4.693 4.267 7.253 1.707 1.707 2.987 3.413 3.84 5.547zM597.333 261.974c-23.467 0-42.667-19.2-42.667-42.667v-122.027c0-0.427 0-1.28 0-1.707 0-3.413-1.28-6.4-2.56-8.533-1.28-0.853-2.133-1.707-2.987-1.707h-372.481c-0.853 0-2.133 0.853-2.987 2.133-1.707 1.707-2.987 4.693-2.987 8.107 0 0.427 0 1.28 0 1.707v658.347c0 0.853 0 1.28 0 1.707 0 3.413 1.28 6.4 2.56 8.533 1.28 1.28 2.56 2.133 2.987 2.133h372.481c0.853 0 1.707-0.853 2.987-2.133 1.707-1.707 2.987-4.693 2.56-8.107 0-0.427 0-1.28 0-1.707v-122.027c0-23.467 19.2-42.667 42.667-42.667s42.667 19.2 42.667 42.667v121.173c0.853 23.893-7.253 47.787-22.613 66.133-16.213 18.773-38.827 30.72-64 32-0.853 0-1.707 0-2.133 0h-376.321c-0.853 0-1.28 0-2.133 0-25.173-1.28-48.213-13.227-64-32s-23.893-42.24-23.040-66.133v-657.067c-0.853-23.893 7.253-47.787 22.613-66.133 15.787-18.773 38.827-30.72 64-32 0.853 0 1.707 0 2.56 0h376.321c0.853 0 1.707 0 2.133 0 25.173 1.28 48.213 13.227 64 32 15.787 18.347 23.467 42.24 22.613 66.133v121.173c0.427 23.893-18.773 42.667-42.24 42.667z" />
<glyph unicode="&#xe94c;" glyph-name="loyalty" d="M538.462 609.707c-15.36 11.947-37.12 11.947-52.48 0l-155.734-122.027c-18.773-14.507-21.76-41.387-7.253-59.733 10.667-13.227 27.307-18.347 42.667-14.933v-71.253c0-18.773 7.68-35.84 20.907-48.213 12.8-12.373 30.293-19.2 47.788-19.2h155.733c17.493 0 34.56 6.827 47.787 19.2s20.907 29.867 20.907 48.213v71.253c15.36-3.413 32.427 1.707 42.667 14.933 14.507 18.347 11.093 45.227-7.253 59.733l-155.733 122.027zM450.995 359.68v114.347l61.013 47.787 61.013-47.787v-114.347h-122.027zM919.049 714.24c-16.64 35.413-41.387 66.133-71.68 89.6s-66.133 39.68-103.68 46.080c-37.547 6.4-76.373 3.413-112.64-8.96s-69.12-33.707-95.573-61.867l-23.467-24.32-23.040 24.32c-26.453 28.16-59.307 49.493-95.574 61.867s-75.093 15.36-113.067 8.96c-37.547-6.4-72.96-22.187-103.68-46.080-30.293-23.467-55.040-54.613-71.68-89.6-28.587-60.16-23.040-128-2.56-192.853s58.027-131.84 101.547-195.413c87.040-126.72 203.947-245.76 279.041-314.88 16.213-14.933 40.96-14.933 57.6 0 75.947 68.693 192.427 188.16 279.467 314.88 43.52 63.573 80.64 130.56 101.547 195.413 20.48 64.853 26.027 132.693-2.56 192.853zM840.115 547.414c-17.067-53.76-49.493-113.067-90.453-173.227-71.68-104.96-166.4-205.653-237.653-273.493-71.253 68.267-165.974 168.96-238.081 273.493-40.96 59.733-73.387 119.040-90.453 172.8-16.64 54.187-17.067 97.707-1.28 130.56 11.093 23.467 27.307 43.52 46.933 58.88s42.24 25.173 65.707 29.44c23.893 4.267 47.787 2.133 70.827-5.547s43.947-21.333 61.441-39.68l54.187-57.173c8.107-8.533 19.2-13.653 30.72-13.653 11.947 0 23.040 4.693 31.147 13.227l54.187 57.6c17.493 18.347 38.4 32 61.44 39.68s46.933 9.813 70.827 5.547c23.467-3.84 46.080-14.080 65.707-29.013 19.627-15.36 35.84-35.413 46.933-58.88 15.36-32.853 14.933-76.373-2.133-130.56z" />
<glyph unicode="&#xe94d;" glyph-name="mails" d="M810.667 768h-597.333c-70.827 0-128-57.173-128-128v-426.667c0-70.827 57.173-128 128-128h597.333c70.827 0 128 57.173 128 128v426.667c0 70.827-57.173 128-128 128zM782.080 682.667l-270.080-202.667-270.080 202.667h540.16zM810.667 170.667h-597.333c-23.467 0-42.667 19.2-42.667 42.667v416l315.733-236.8c15.36-11.52 35.84-11.52 51.2 0l315.733 236.8v-416c0-23.467-19.2-42.667-42.667-42.667z" />
<glyph unicode="&#xe94e;" glyph-name="make_default" d="M512 832c18.027 0 34.287-10.776 41.212-27.315l95.778-228.796 248.61-19.802c17.971-1.431 33.31-13.464 38.882-30.499 5.568-17.035 0.277-35.727-13.414-47.38l-189.414-161.207 57.869-241.033c4.186-17.425-2.594-35.635-17.178-46.165-14.588-10.53-34.116-11.307-49.502-1.967l-212.843 129.165-212.844-129.165c-15.386-9.34-34.914-8.563-49.499 1.967s-21.363 28.74-17.18 46.165l57.869 241.033-189.414 161.207c-13.692 11.652-18.983 30.345-13.412 47.38s20.911 29.068 38.881 30.499l248.609 19.802 95.778 228.796c6.925 16.538 23.185 27.315 41.212 27.315zM512 672.185l-65.041-155.363c-6.426-15.352-20.958-25.844-37.641-27.175l-168.817-13.444 128.621-109.466c12.711-10.82 18.262-27.793 14.379-43.968l-39.296-163.674 144.529 87.71c14.285 8.666 32.247 8.666 46.532 0l144.529-87.71-39.296 163.674c-3.883 16.175 1.668 33.148 14.379 43.968l128.623 109.466-168.819 13.444c-16.683 1.331-31.215 11.823-37.641 27.175l-65.041 155.363z" />
<glyph unicode="&#xe94f;" glyph-name="manager_report" d="M865.28 699.307c-18.773 17.067-43.947 26.027-68.693 26.027h-105.387c-8.533 30.293-25.6 58.027-49.92 79.36-34.987 31.573-81.493 48.64-129.28 48.64s-94.293-17.067-129.28-48.64c-23.893-21.333-41.387-49.067-49.92-79.36h-105.387c-24.747 0-49.493-8.96-68.693-26.027s-30.72-41.387-30.72-67.84v-537.6c0-26.453 11.52-50.773 30.72-67.84s43.947-26.027 68.693-26.027h568.747c25.173 0 49.92 8.96 68.693 26.027 19.2 17.067 30.72 41.387 30.72 67.84v537.6c0.427 26.453-11.093 50.773-30.293 67.84zM810.667 93.867c0-0.853-0.427-2.56-2.56-4.267-2.56-2.56-6.4-4.267-11.52-4.267h-569.173c-5.12 0-9.387 1.707-11.52 3.84s-2.56 3.84-2.56 4.693v537.6c0 0.853 0.427 2.56 2.56 4.267 2.56 2.56 6.4 4.267 11.52 4.267h142.080c23.467 0 42.667 19.2 42.667 42.667 0 20.907 9.387 42.24 27.733 58.88s44.373 26.453 72.107 26.453c27.733 0 53.76-9.813 72.107-26.453s27.733-37.547 27.733-58.88c0-23.467 19.2-42.667 42.667-42.667h142.080c5.12 0 9.387-1.707 11.52-3.84s2.56-3.84 2.56-4.693v-537.6zM341.333 554.667c-23.467 0-42.667-19.2-42.667-42.667s19.2-42.667 42.667-42.667h341.333c23.467 0 42.667 19.2 42.667 42.667s-19.2 42.667-42.667 42.667h-341.333zM341.333 405.334c-23.467 0-42.667-19.2-42.667-42.667s19.2-42.667 42.667-42.667h341.333c23.467 0 42.667 19.2 42.667 42.667s-19.2 42.667-42.667 42.667h-341.333zM682.667 256c23.467 0 42.667-19.2 42.667-42.667s-19.2-42.667-42.667-42.667h-341.333c-23.467 0-42.667 19.2-42.667 42.667s19.2 42.667 42.667 42.667h341.333zM554.667 682.667c0-23.564-19.102-42.667-42.667-42.667s-42.667 19.103-42.667 42.667c0 23.564 19.102 42.667 42.667 42.667s42.667-19.103 42.667-42.667z" />
<glyph unicode="&#xe950;" glyph-name="marketplace" d="M890.88 800l46.933-210.347c0.427-2.987 0.853-6.4 0.853-9.387 0-31.573-12.373-61.867-34.987-84.48-22.187-22.613-52.907-34.987-84.48-34.987-28.16 0-55.467 10.24-76.8 28.16-21.333-18.347-48.64-28.16-76.8-28.16s-55.467 10.24-76.8 28.16c-21.333-18.347-48.64-28.16-76.8-28.16s-55.467 9.813-76.8 28.16c-21.333-18.347-48.64-28.16-76.8-28.16s-55.467 9.813-76.8 28.16c-21.333-18.347-48.64-28.16-76.8-28.16-31.573 0-61.867 12.373-84.48 34.987-22.187 22.613-34.987 52.907-34.987 84.48 0 2.987 0.427 6.4 0.853 9.387l46.933 210.347c3.413 14.933 11.947 28.587 23.893 38.4s27.307 14.933 42.667 14.933h624.64c15.36 0 30.72-5.12 42.667-14.933s20.48-23.467 23.893-38.4zM819.2 546.134c8.96 0 17.92 3.413 24.32 9.813 5.547 5.547 8.96 12.8 9.813 20.48l-42.667 191.573h-597.333l-42.667-191.573c0.853-7.68 4.267-14.933 9.813-20.48 6.4-6.4 15.36-9.813 24.32-9.813s17.92 3.413 24.32 9.813c6.4 6.4 9.813 15.36 9.813 24.32 0 23.467 19.2 42.667 42.667 42.667s42.667-19.2 42.667-42.667c0-8.96 3.413-17.92 9.813-24.32s15.36-9.813 24.32-9.813c8.96 0 17.92 3.413 24.32 9.813s9.813 15.36 9.813 24.32c0 23.467 19.2 42.667 42.667 42.667s42.667-19.2 42.667-42.667c0-8.96 3.413-17.92 9.813-24.32s15.36-9.813 24.32-9.813c8.96 0 17.92 3.413 24.32 9.813s9.813 15.36 9.813 24.32c0 23.467 19.2 42.667 42.667 42.667s42.667-19.2 42.667-42.667c0-8.96 3.413-17.92 9.813-24.32s15.36-9.813 24.32-9.813c8.96 0 17.92 3.413 24.32 9.813s9.813 15.36 9.813 24.32c0 23.467 19.2 42.667 42.667 42.667s42.667-19.2 42.667-42.667c0-8.96 3.413-17.92 9.813-24.32s15.36-9.813 24.32-9.813zM559.36 264.107l74.24-6.4c18.773-1.707 26.453-24.32 12.373-37.12l-57.173-51.627 17.067-75.52c4.267-18.347-16.213-32.853-32.427-22.613l-61.44 39.68-61.44-39.68c-16.213-10.24-36.693 3.84-32.427 22.613l17.067 75.52-57.173 51.627c-14.080 12.8-6.4 35.413 11.947 37.12l74.24 6.4 27.733 69.973c7.253 17.92 32.427 17.92 39.68 0l27.733-69.973zM170.667 426.667c-23.467 0-42.667-19.2-42.667-42.667v-341.333c0-23.467 19.2-42.667 42.667-42.667s42.667 19.2 42.667 42.667v341.333c0 23.467-19.2 42.667-42.667 42.667zM810.667 384c0 23.467 19.2 42.667 42.667 42.667s42.667-19.2 42.667-42.667v-341.333c0-23.467-19.2-42.667-42.667-42.667s-42.667 19.2-42.667 42.667v341.333z" />
<glyph unicode="&#xe951;" glyph-name="media" d="M810.667 682.667h-227.413l125.013 93.867c18.773 14.080 22.613 40.96 8.533 59.733s-40.96 22.613-59.733 8.533l-145.067-108.8-145.067 108.8c-18.773 14.080-45.653 10.24-59.733-8.533s-10.24-45.653 8.533-59.733l125.013-93.867h-227.413c-70.827 0-128-57.173-128-128v-341.333c0-70.827 57.173-128 128-128v-42.667c0-23.467 19.2-42.667 42.667-42.667s42.667 19.2 42.667 42.667v42.667h426.667v-42.667c0-23.467 19.2-42.667 42.667-42.667s42.667 19.2 42.667 42.667v42.667c70.827 0 128 57.173 128 128v341.333c0 70.827-57.173 128-128 128zM853.333 213.334c0-23.467-19.2-42.667-42.667-42.667h-597.333c-23.467 0-42.667 19.2-42.667 42.667v341.333c0 23.467 19.2 42.667 42.667 42.667h597.333c23.467 0 42.667-19.2 42.667-42.667v-341.333z" />
<glyph unicode="&#xe952;" glyph-name="menu" d="M85.333 682.667c0 23.564 19.103 42.667 42.667 42.667h768c23.565 0 42.667-19.103 42.667-42.667s-19.102-42.667-42.667-42.667h-768c-23.564 0-42.667 19.103-42.667 42.667zM85.333 426.667c0 23.565 19.103 42.667 42.667 42.667h768c23.565 0 42.667-19.102 42.667-42.667s-19.102-42.667-42.667-42.667h-768c-23.564 0-42.667 19.102-42.667 42.667zM85.333 170.667c0 23.565 19.103 42.667 42.667 42.667h768c23.565 0 42.667-19.102 42.667-42.667s-19.102-42.667-42.667-42.667h-768c-23.564 0-42.667 19.102-42.667 42.667z" />
<glyph unicode="&#xe953;" glyph-name="disable" d="M813.653 728.32c-79.787 80.213-188.587 125.013-301.653 125.013s-221.867-44.8-301.653-125.013c-80.213-79.787-125.013-188.587-125.013-301.653s44.8-221.867 125.013-301.653c79.787-80.213 188.587-125.013 301.653-125.013s221.867 44.8 301.653 125.013c80.213 79.787 125.013 188.587 125.013 301.653s-44.8 221.867-125.013 301.653zM270.507 668.16c64 64 151.040 99.84 241.493 99.84 76.373 0 149.76-25.6 209.067-71.68l-478.293-478.72c-46.507 59.307-72.107 133.12-72.107 209.067 0 90.453 35.84 177.493 99.84 241.493zM753.493 185.174c-64-64-151.040-99.84-241.493-99.84-76.373 0-149.76 25.6-209.067 71.68l478.293 478.72c46.507-59.307 72.107-133.12 72.107-209.067 0-90.453-35.84-177.493-99.84-241.493z" />
<glyph unicode="&#xe954;" glyph-name="military" d="M881.067 753.493c-10.24 14.933-24.32 26.88-40.533 34.133l-0.853 0.427c-103.253 43.947-215.040 66.133-327.68 65.28-112.64 0.853-224.427-21.333-327.68-65.28l-0.853-0.427c-16.213-7.253-30.293-19.2-40.533-34.133-9.813-15.36-14.933-33.28-14.933-51.2v-259.84c0-90.88 28.16-179.627 81.067-254.72 52.48-74.667 127.147-132.267 213.76-164.693l36.693-13.653c33.707-12.373 71.253-12.373 104.96 0l36.693 13.653c86.613 32.427 161.28 90.027 213.76 164.693 52.907 75.093 81.067 163.84 81.067 254.72v259.413c0 0.427 0 0.427 0 0.427 0 17.92-5.12 35.84-14.933 51.2zM810.667 442.454c0-73.387-22.613-145.067-65.28-205.653s-103.68-107.093-174.080-133.547l-36.693-13.653c-14.507-5.547-30.72-5.547-45.227 0l-36.693 13.653c-70.827 26.453-131.413 72.96-174.080 133.547s-65.28 132.267-65.28 205.653v260.266c0 1.28 0.427 2.56 1.28 3.84s1.707 2.133 2.987 2.987l0.853 0.427c92.587 39.253 192 58.88 293.12 58.027h0.853c101.12 0.853 200.533-18.773 293.12-58.027l0.853-0.427c1.28-0.853 2.133-1.707 2.987-2.987s1.28-2.56 1.28-3.84v-260.266zM695.893 699.733c-23.467 0-42.667-19.2-42.667-42.667v-59.733h-98.56v59.733c0 23.467-19.2 42.667-42.667 42.667s-42.667-19.2-42.667-42.667v-59.733h-98.56v59.733c0 23.467-19.2 42.667-42.667 42.667s-42.667-19.2-42.667-42.667v-204.8c0-23.467 19.2-42.667 42.667-42.667h9.813v-162.133c0-23.467 19.2-42.667 42.667-42.667h262.4c23.467 0 42.667 19.2 42.667 42.667v162.133h9.813c23.467 0 42.667 19.2 42.667 42.667v204.8c0.427 23.467-18.773 42.667-42.24 42.667zM653.227 494.934h-9.813c-23.467 0-42.667-19.2-42.667-42.667v-162.133h-177.493v162.133c0 23.467-19.2 42.667-42.667 42.667h-9.813v17.067h282.453v-17.067z" />
</font>
</defs>
</svg>
