<svg width="400" height="300" viewBox="0 0 400 300" fill="none" xmlns="http://www.w3.org/2000/svg">
<rect width="400" height="300" fill="#F9F4EE"/>
<path d="M166.85 96.1364C171.144 95.5239 177.164 96.9224 184.944 101.372L186.42 102.245L187.289 102.787L189.444 102.337C197.662 100.752 206.094 100.605 214.362 101.904L216.838 102.337L218.988 102.787L219.862 102.245C227.38 97.6921 233.363 95.9034 237.896 96.0226L238.786 96.066L239.584 96.1581L239.997 96.234L240.268 96.2936L241.05 96.5484C242.33 97.0766 243.359 98.0733 243.927 99.3344C246.149 104.276 246.897 109.752 246.083 115.107L245.827 116.555L245.578 117.617L246.245 118.501C249.362 122.81 251.294 127.867 251.837 133.173L251.962 134.772L252 136.247C252 157.142 242.994 168.134 226.789 172.454L225.459 172.785L224.742 172.942L224.818 173.814L224.862 174.665L224.883 176.644L224.872 177.798L224.856 198.58C224.856 199.907 224.368 201.189 223.484 202.181C222.601 203.173 221.383 203.807 220.062 203.962L219.427 204H186.855C185.525 204 184.242 203.512 183.248 202.63C182.254 201.748 181.619 200.532 181.464 199.214L181.426 198.58V194.601C171.556 196.011 164.977 192.303 159.114 184.422L156.209 180.27C154.689 178.124 153.739 177.132 153.012 176.779L152.751 176.676C151.407 176.24 150.286 175.298 149.627 174.05C148.968 172.802 148.822 171.346 149.221 169.992C149.619 168.639 150.531 167.493 151.762 166.8C152.993 166.107 154.446 165.921 155.813 166.28C159.298 167.299 161.643 169.359 164.336 172.996L167.257 177.164C171.383 183.013 174.64 185.072 181.42 183.62L181.426 179.945L181.328 179.034C181.168 177.551 181.13 176.057 181.214 174.568L181.306 173.565L181.41 172.915L180.823 172.785C164.667 168.936 155.292 158.838 154.358 139.51L154.304 137.829L154.282 136.247C154.288 130.374 156.001 124.63 159.211 119.709L160.036 118.506L160.699 117.622L160.454 116.56C159.476 111.799 159.747 106.866 161.242 102.24L161.785 100.711L162.36 99.3398C162.927 98.0797 163.954 97.0832 165.232 96.5538L166.014 96.2991L166.85 96.1364Z" fill="#6B69E0"/>
</svg>
