<svg width="400" height="300" viewBox="0 0 400 300" fill="none" xmlns="http://www.w3.org/2000/svg">
<rect width="400" height="300" fill="#EFEFFE"/>
<path d="M149.25 207.355L145.005 94.17C144.865 90.4319 147.729 87.264 151.461 87.0306L247.68 81.0137C251.478 80.7762 254.749 83.6642 254.987 87.4644C254.996 87.6076 255 87.751 255 87.8944V211.229C255 215.037 251.915 218.123 248.11 218.123C248.006 218.123 247.903 218.121 247.8 218.116L155.827 213.983C152.245 213.822 149.385 210.94 149.25 207.355Z" fill="#6B69E0"/>
<path d="M225.713 97.9112L226.361 82.0423L239.371 81L239.931 97.3651C239.951 97.9346 239.514 98.4124 238.955 98.4323C238.716 98.4408 238.481 98.3627 238.293 98.2117L233.276 94.1818L227.336 98.7762C226.891 99.1206 226.256 99.0317 225.918 98.5777C225.776 98.3866 225.704 98.1509 225.713 97.9112ZM209.075 132.857C209.075 135.548 226.854 134.258 229.241 132.368C229.241 114.041 219.596 104.411 201.935 104.411C184.275 104.411 174.38 114.191 174.38 128.862C174.38 154.412 208.198 154.901 208.198 168.838C208.198 172.75 206.319 175.073 202.186 175.073C196.8 175.073 194.671 172.269 194.921 162.733C194.921 160.664 174.38 160.019 173.754 162.733C172.159 185.841 186.279 192.507 202.436 192.507C218.093 192.507 230.368 183.998 230.368 168.594C230.368 141.209 196.049 141.943 196.049 128.373C196.049 122.871 200.057 122.138 202.436 122.138C204.942 122.138 209.451 122.588 209.075 132.857Z" fill="#EFEFFE"/>
</svg>
