<svg width="190" height="24" viewBox="0 0 190 24" fill="none" xmlns="http://www.w3.org/2000/svg">
<path fill-rule="evenodd" clip-rule="evenodd" d="M180.434 9.85598C183.926 10.029 189.204 10.2904 189.869 14.7011C190.201 16.9061 189.99 19.6148 188.191 21.1811C186.36 22.774 183.92 23.2834 181.594 23.6179C178.957 23.9981 176.274 24 173.616 24H173.529C166.563 24 160.219 23.0306 156.089 22.2056L156.6 17.8109C162.862 18.7822 168.308 19.4266 174.473 19.4266C177.01 19.4266 179.62 19.3562 182.094 18.8411C183.986 18.4457 184.902 17.4497 184.765 16.0754C184.613 14.5357 183.057 14.2696 181.72 14.2088C180.183 14.1403 165.68 13.726 165.68 13.726L165.453 13.7157C162.448 13.5805 157.849 13.3736 156.526 10.0763C155.737 8.10898 155.872 5.22541 157.174 3.51845C158.707 1.50927 161.832 0.853477 164.686 0.479012C167.103 0.161571 169.761 0 172.586 0C178.627 0 184.285 0.899097 188.374 1.65943L188.368 1.68985L187.779 6.04087C182.356 5.04863 177.222 4.43656 171.64 4.43656C169.102 4.43656 166.543 4.48218 163.981 5.02392C162.699 5.29574 161.289 6.02186 161.449 7.58625C161.601 9.08031 163.157 9.33882 164.494 9.39775C166.014 9.46428 180.432 9.85585 180.432 9.85585L180.434 9.85598ZM6.1237 0.161606L20.5428 18.0903L34.96 0.161606H41.0837V23.8499H35.6687V7.42852L23.6683 22.352C21.9659 24.4695 19.114 24.4619 17.4173 22.352L5.415 7.42852V23.848H0V0.161606H6.1237ZM86.3911 0.161621H54.8986V23.848H86.6552L87.4513 19.0579H60.3136V14.4008H85.3157V9.61069H60.3136V4.95174H86.3911V0.161621ZM148.529 0.16164L138.651 23.8423H132.903L122.575 5.15895L112.246 23.8423H106.499L96.6207 0.16164H102.21L109.772 18.288L118.683 2.31719C119.483 0.923877 120.967 0.0646973 122.575 0.0646973C124.18 0.0646973 125.664 0.923877 126.466 2.31719L135.377 18.288L142.937 0.16164H148.529Z" fill="#21212E"/>
</svg>
