<svg width="132" height="24" viewBox="0 0 132 24" fill="none" xmlns="http://www.w3.org/2000/svg">
<path d="M24.5515 15.3476L16.5648 5.46725H13.1067V18.4764H16.1531V9.50172L22.8224 17.7354C23.7281 18.8881 25.3748 18.8881 26.2805 17.7354L32.9498 9.50172V18.5587H35.9962V5.46723H32.6204L24.5515 15.3476Z" fill="#242435"/>
<path d="M46.7 13.2893H60.6149V10.6546H46.7V8.10214H61.1912V5.46738H43.6536V18.4765H61.3559L61.7676 15.8418H46.7L46.7 13.2893Z" fill="#242435"/>
<path d="M88.4443 15.43L83.5042 6.61996C82.8455 5.46726 81.2811 5.05556 80.1284 5.71427C79.7167 5.96128 79.3873 6.20829 79.2227 6.61996L74.2825 15.43L70.001 5.46724H66.8722L72.3888 18.4764H75.5999L81.3634 8.18434L87.127 18.4764H90.3381L95.8547 5.46724H92.7259L88.4443 15.43Z" fill="#242435"/>
<path d="M118.827 13.454C118.415 11.0663 115.533 10.9016 113.557 10.8192C113.557 10.8192 105.57 10.5722 104.665 10.5722C103.924 10.5722 103.018 10.4076 102.936 9.5842C102.853 8.76083 103.594 8.34915 104.335 8.18449C105.817 7.85513 107.217 7.85513 108.617 7.85513C111.746 7.85513 114.545 8.18449 117.592 8.76083L117.921 6.37308C115.615 5.9614 112.487 5.46738 109.111 5.46738C107.629 5.46738 106.147 5.54973 104.747 5.71439C103.183 5.9614 101.454 6.29075 100.548 7.36111C99.8069 8.26681 99.7246 9.91355 100.219 10.9839C100.96 12.7953 103.512 12.8776 105.241 12.96H105.323C105.323 12.96 113.392 13.207 114.216 13.207C114.957 13.207 115.863 13.3717 115.945 14.195C116.027 14.9361 115.533 15.5124 114.463 15.6771C113.063 15.9241 111.663 16.0064 110.181 16.0064C106.723 16.0064 103.759 15.6771 100.219 15.1007L99.9716 17.4885C103.183 18.1472 106.394 18.4765 109.687 18.4765H109.77C111.252 18.4765 112.734 18.4765 114.216 18.2295C115.533 18.0649 116.851 17.7355 117.921 16.9121C118.909 16.1711 118.991 14.6891 118.827 13.454Z" fill="#242435"/>
</svg>
