<svg width="166" height="24" viewBox="0 0 166 24" fill="none" xmlns="http://www.w3.org/2000/svg">
<path d="M20.2981 17.7143L6.63073 0.235299H0V23.7647H5.58196V7.4622L17.2873 22.2856C18.945 24.3696 21.719 24.3696 23.3767 22.2856L35.082 7.4622V23.7647H40.664V0.235299H34.0671L20.2981 17.7143ZM77.945 0.235299H46.9565V23.7647H78.2494V18.9579H52.5384V14.3865H76.9301V9.57975H52.5384V5.04195H77.945V0.235299ZM120.266 23.7647L129.941 0.235299H124.157L116.985 18.1848L109.611 2.28575C108.968 0.87395 107.209 0.0672477 105.653 0.0672477C104.061 0.0672477 102.336 0.87395 101.693 2.28575L94.2509 18.1848L87.1129 0.235299H81.3619L90.9699 23.7647H97.2626L105.653 5.8151L114.007 23.7647H120.266ZM134.983 16.2352L132.039 20.8403C136.2 22.9243 141.75 24 148.311 24C155.112 24 165.126 23.5294 165.126 16.4033C165.126 9.6807 156.262 9.916 148.819 9.51265C142.696 9.2101 138.365 9.4117 138.365 7.4285C138.365 5.17645 142.73 4.94115 148.278 4.94115C154.367 4.94115 158.224 5.74785 161.472 7.39495L164.279 2.75635C160.152 0.974746 154.401 0 148.311 0C141.039 0 132.344 0.571398 132.344 7.4622C132.344 14.0167 141.106 13.6806 148.548 14.0504C155.552 14.3865 159.104 14.252 159.104 16.2352C159.104 18.353 156.295 19.0587 148.311 19.0587C143.813 19.0587 139.144 18.2184 134.983 16.2352Z" fill="black"/>
</svg>
