<svg width="80" height="80" viewBox="0 0 80 80" fill="none" xmlns="http://www.w3.org/2000/svg">
    <path
        d="M19 16C19 7.16344 26.1634 0 35 0H64C72.8366 0 80 7.16344 80 16V45C80 53.8366 72.8366 61 64 61H35C26.1634 61 19 53.8366 19 45V16Z"
        fill="url(#paint0_linear_10310_460)" />
    <path
        d="M57.75 39.25L66.7482 39.25C68.9574 39.25 70.7482 41.0409 70.7482 43.25L70.7483 55.4244C70.7483 57.5408 69.0326 59.2565 66.9161 59.2565V59.2565C65.8579 59.2565 65 60.1144 65 61.1726V62.7097C65 64.5205 62.7857 65.3991 61.5441 64.081L57.5922 59.8853C57.2143 59.484 56.6875 59.2565 56.1363 59.2565H45.1133C42.9041 59.2565 41.1133 57.4657 41.1133 55.2566V49.25"
        stroke="#595959" stroke-width="2.5" stroke-linecap="round" />
    <path
        d="M28.4978 44.7439L20.215 53.2333C18.9624 54.5171 16.7835 53.6303 16.7835 51.8366L16.7834 46.7691C16.7834 45.6548 15.8726 44.7553 14.7584 44.7693L14.3252 44.7747C10.9824 44.8166 8.25001 42.1183 8.25002 38.7752L8.25007 20.2074C8.25008 16.8937 10.9364 14.2074 14.2501 14.2074H47.2273C50.541 14.2074 53.2273 16.8937 53.2273 20.2074L53.2272 38.7439C53.2272 42.0576 50.5409 44.7439 47.2272 44.7439H40.375"
        stroke="#595959" stroke-width="2.5" stroke-linecap="round" />
    <path
        d="M19.0137 27.0786C19.0137 27.0786 21.9682 25.3236 25.5137 27.0786C29.0591 28.8336 32.0137 27.0786 32.0137 27.0786"
        stroke="#7876FB" stroke-width="2.5" stroke-linecap="round" />
    <path
        d="M32.1965 26.98C32.1965 26.98 35.1511 25.225 38.6965 26.98C42.242 28.735 45.1965 26.98 45.1965 26.98"
        stroke="#7876FB" stroke-width="2.5" stroke-linecap="round" />
    <path
        d="M19.0137 35.0786C19.0137 35.0786 21.9682 33.3236 25.5137 35.0786C29.0591 36.8336 32.0137 35.0786 32.0137 35.0786"
        stroke="#7876FB" stroke-width="2.5" stroke-linecap="round" />
    <path d="M40.625 44.75L30.875 44.75" stroke="url(#paint1_linear_10310_460)" stroke-width="2.5"
        stroke-linecap="round" />
    <defs>
        <linearGradient id="paint0_linear_10310_460" x1="49.5" y1="25.75" x2="49.5" y2="61"
            gradientUnits="userSpaceOnUse">
            <stop stop-color="#F7F7FA" />
            <stop offset="1" stop-color="#F7F7FA" stop-opacity="0" />
        </linearGradient>
        <linearGradient id="paint1_linear_10310_460" x1="35.0625" y1="44.75" x2="30.25" y2="44.75"
            gradientUnits="userSpaceOnUse">
            <stop stop-color="#595959" />
            <stop offset="1" stop-color="#595959" stop-opacity="0" />
        </linearGradient>
    </defs>
</svg>
