<svg width="80" height="80" viewBox="0 0 80 80" fill="none" xmlns="http://www.w3.org/2000/svg">
    <path
        d="M0 16C0 7.16344 7.16344 0 16 0H45C53.8366 0 61 7.16344 61 16V45C61 53.8366 53.8366 61 45 61H16C7.16344 61 0 53.8366 0 45V16Z"
        fill="url(#paint0_linear_10310_429)" />
    <path fill-rule="evenodd" clip-rule="evenodd"
        d="M21.25 10.5C18.6266 10.5 16.5 12.6266 16.5 15.25V58.75C16.5 61.3733 18.6266 63.5 21.25 63.5H50.75C53.3734 63.5 55.5 61.3733 55.5 58.75V34.75V24.8295C55.5 23.5046 54.9467 22.24 53.9736 21.3408L43.7073 11.8545C43.227 11.4107 42.4483 11.7513 42.4483 12.4053V22.75C42.4483 23.1642 42.7841 23.5 43.1983 23.5H47.8235C48.5139 23.5 49.0735 24.0596 49.0735 24.75C49.0735 25.4404 48.5139 26 47.8235 26H43.1983C41.4034 26 39.9483 24.5449 39.9483 22.75V12.4053C39.9483 9.57134 43.3225 8.09505 45.404 10.0184L55.6703 19.5047C57.1555 20.8771 58 22.8073 58 24.8295V34.75V58.75C58 62.7541 54.7541 66 50.75 66H21.25C17.2459 66 14 62.7541 14 58.75V15.25C14 11.2459 17.2459 8 21.25 8H26.1713H37.0926C37.7829 8 38.3426 8.55964 38.3426 9.25C38.3426 9.94036 37.7829 10.5 37.0926 10.5H26.1713H21.25Z"
        fill="#595959" />
    <path fill-rule="evenodd" clip-rule="evenodd"
        d="M26.8525 39.548L24.568 38.5326C24.2807 39.1791 24.2807 39.9169 24.568 40.5633L26.8525 39.548ZM45.1475 39.548C47.432 38.5326 47.4315 38.5316 47.431 38.5305L47.43 38.5282L47.4278 38.5233L47.4226 38.5116L47.409 38.4819C47.3985 38.4593 47.3852 38.431 47.369 38.3974C47.3367 38.3303 47.2928 38.2419 47.237 38.1353C47.1255 37.9224 46.9651 37.6347 46.7526 37.2971C46.33 36.6259 45.6868 35.7351 44.7917 34.84C42.987 33.0353 40.0984 31.1675 36 31.1675C31.9016 31.1675 29.013 33.0353 27.2083 34.84C26.3132 35.7351 25.67 36.6259 25.2474 37.2971C25.0349 37.6347 24.8745 37.9224 24.763 38.1353C24.7072 38.2419 24.6633 38.3303 24.631 38.3974C24.6148 38.431 24.6015 38.4593 24.5911 38.4819L24.5774 38.5116L24.5722 38.5233L24.57 38.5282L24.569 38.5305C24.5685 38.5316 24.568 38.5326 26.8525 39.548C24.568 40.5633 24.5685 40.5644 24.569 40.5655L24.57 40.5678L24.5722 40.5727L24.5774 40.5843L24.5911 40.6141C24.6015 40.6367 24.6148 40.665 24.631 40.6986C24.6633 40.7657 24.7072 40.8541 24.763 40.9607C24.8745 41.1736 25.0349 41.4613 25.2474 41.7989C25.67 42.4701 26.3132 43.3609 27.2083 44.256C29.013 46.0607 31.9016 47.9285 36 47.9285C40.0984 47.9285 42.987 46.0607 44.7917 44.256C45.6868 43.3609 46.33 42.4701 46.7526 41.7989C46.9651 41.4613 47.1255 41.1736 47.237 40.9607C47.2928 40.8541 47.3367 40.7657 47.369 40.6986C47.3852 40.665 47.3985 40.6367 47.409 40.6141L47.4226 40.5843L47.4278 40.5727L47.43 40.5678L47.431 40.5655C47.4315 40.5644 47.432 40.5633 45.1475 39.548ZM45.1475 39.548L47.432 40.5633C47.7193 39.9169 47.7193 39.1791 47.432 38.5326L45.1475 39.548ZM45.1475 39.548C45.1475 39.548 42.5339 33.6675 36 33.6675C29.4661 33.6675 26.8525 39.548 26.8525 39.548C26.8525 39.548 29.4661 45.4285 36 45.4285C42.5339 45.4285 45.1475 39.548 45.1475 39.548ZM39.267 39.548C39.267 41.3523 37.8044 42.815 36.0001 42.815C34.1958 42.815 32.7331 41.3523 32.7331 39.548C32.7331 37.7437 34.1958 36.2811 36.0001 36.2811C37.8044 36.2811 39.267 37.7437 39.267 39.548Z"
        fill="#7876FB" />
    <line x1="46.4141" y1="24.7335" x2="52.9653" y2="24.7335" stroke="url(#paint1_linear_10310_429)"
        stroke-width="2.5" stroke-linecap="round" stroke-linejoin="round" />
    <defs>
        <linearGradient id="paint0_linear_10310_429" x1="30.5" y1="25.75" x2="30.5" y2="61"
            gradientUnits="userSpaceOnUse">
            <stop stop-color="#F7F7FA" />
            <stop offset="1" stop-color="#F7F7FA" stop-opacity="0" />
        </linearGradient>
        <linearGradient id="paint1_linear_10310_429" x1="49.2699" y1="25.3305" x2="52.9557"
            y2="25.3305" gradientUnits="userSpaceOnUse">
            <stop stop-color="#595959" />
            <stop offset="1" stop-color="white" stop-opacity="0" />
        </linearGradient>
    </defs>
</svg>
