<svg width="80" height="80" viewBox="0 0 80 80" fill="none" xmlns="http://www.w3.org/2000/svg">
    <path
        d="M0 16C0 7.16344 7.16344 0 16 0H45C53.8366 0 61 7.16344 61 16V45C61 53.8366 53.8366 61 45 61H16C7.16344 61 0 53.8366 0 45V16Z"
        fill="url(#paint0_linear_10310_406)" />
    <path
        d="M67.6158 47.9957C65.7572 54.4149 61.7205 59.9861 56.1995 63.7516C50.6785 67.5172 44.0181 69.2417 37.3634 68.6288C30.7088 68.016 24.4754 65.104 19.735 60.3934C14.9947 55.6829 12.0433 49.4681 11.3884 42.8174C10.7335 36.1667 12.416 29.4956 16.1465 23.9509C19.8771 18.4063 25.4227 14.3344 31.83 12.4353L36.1287 11.4414"
        stroke="#595959" stroke-width="2.5" stroke-linecap="round" stroke-linejoin="round" />
    <path
        d="M56.2298 49.3895V49.3895C56.4809 48.9555 56.4145 48.9234 56.2298 49.3895V49.3895ZM56.2298 49.3895C54.9391 51.6204 53.1923 53.5787 51.0813 55.1253C47.4733 57.7687 43.0393 59.0352 38.5795 58.6963C34.1197 58.3575 29.9279 56.4355 26.7607 53.2774C23.5936 50.1193 21.6596 45.933 21.3081 41.4742C20.9565 37.0154 22.2103 32.5777 24.8434 28.9622C27.4764 25.3467 31.3151 22.7915 35.6667 21.7578L38.172 21.3057"
        stroke="#595959" stroke-width="2.5" stroke-linecap="round" stroke-linejoin="round" />
    <path
        d="M47.1896 44.9876C46.1735 46.4522 44.7344 47.5717 43.0648 48.196C41.3951 48.8204 39.5746 48.9199 37.8469 48.4813C36.1191 48.0426 34.5666 47.0867 33.3969 45.7416C32.2273 44.3964 31.4965 42.726 31.3021 40.9541C31.1078 39.1822 31.4594 37.3931 32.3097 35.8264C33.16 34.2598 34.4685 32.9901 36.0601 32.1875"
        stroke="#595959" stroke-width="2.5" stroke-linecap="round" stroke-linejoin="round" />
    <path d="M66.3835 28.5781C69.0387 34.7109 69.4744 41.5771 67.6158 47.9963" stroke="#595959"
        stroke-width="2.5" stroke-linecap="round" stroke-linejoin="round" />
    <path
        d="M56.1027 49.6122C57.5021 47.2554 56.7171 44.2051 54.3494 42.7992C51.9816 41.3933 48.9278 42.1641 47.5284 44.5209L47.2866 44.873"
        stroke="#595959" stroke-width="2.5" stroke-linecap="round" stroke-linejoin="round" />
    <path
        d="M38.4089 21.2503C41.1577 20.7 42.9434 18.0436 42.3976 15.3169C41.8517 12.5903 39.1809 10.826 36.4322 11.3763"
        stroke="#595959" stroke-width="2.5" stroke-linecap="round" stroke-linejoin="round" />
    <path d="M36.0601 32.1872C37.6517 31.3846 39.4505 31.0872 41.2158 31.3349"
        stroke="url(#paint1_linear_10310_406)" stroke-width="2.5" stroke-linecap="round"
        stroke-linejoin="round" />
    <path d="M55.2805 24.6176L39.5515 40.3465" stroke="#7876FB" stroke-width="2.5"
        stroke-linecap="round" />
    <path
        d="M55.3061 18.3993L55.2847 23.6087C55.2824 24.1642 55.7333 24.6151 56.2888 24.6128L61.4983 24.5914C62.0258 24.5892 62.5312 24.3787 62.9042 24.0056L68.4881 18.4217C69.1227 17.7871 68.6649 16.7025 67.7675 16.7147L65.1746 16.7499C64.0489 16.7651 63.1324 15.8486 63.1476 14.7229L63.1828 12.13C63.1949 11.2327 62.1103 10.7748 61.4757 11.4094L55.8918 16.9933C55.5188 17.3664 55.3082 17.8717 55.3061 18.3993Z"
        stroke="#7876FB" stroke-width="2.5" stroke-linecap="round" />
    <defs>
        <linearGradient id="paint0_linear_10310_406" x1="30.5" y1="25.75" x2="30.5" y2="61"
            gradientUnits="userSpaceOnUse">
            <stop stop-color="#F7F7FA" />
            <stop offset="1" stop-color="#F7F7FA" stop-opacity="0" />
        </linearGradient>
        <linearGradient id="paint1_linear_10310_406" x1="37.4339" y1="31.7048" x2="41.5" y2="32"
            gradientUnits="userSpaceOnUse">
            <stop stop-color="#595959" />
            <stop offset="1" stop-color="white" stop-opacity="0" />
        </linearGradient>
    </defs>
</svg>
